<?xml version="1.0" encoding="UTF-8"?>
<svg id="Layer_2" data-name="Layer 2" xmlns="http://www.w3.org/2000/svg" viewBox="0 0 244.06 192">
  <defs>
    <style>
      .cls-1 {
        fill: #b2e3fa;
      }

      .cls-2 {
        fill: #eff8fd;
      }

      .cls-3 {
        fill: #eaf7fd;
      }

      .cls-4 {
        fill: #63bbe5;
      }

      .cls-5 {
        fill: #020507;
      }

      .cls-6 {
        fill: #e6f5fd;
      }

      .cls-7 {
        fill: #7dcef6;
      }

      .cls-8 {
        fill: #caebfb;
      }

      .cls-9 {
        fill: #a9e4f8;
      }

      .cls-10 {
        fill: #020506;
      }

      .cls-11 {
        fill: #75caf3;
      }

      .cls-12 {
        fill: #19d1fc;
      }

      .cls-13 {
        fill: #f5fbfd;
      }

      .cls-14 {
        fill: #66c2ed;
      }

      .cls-15 {
        fill: #d7f1fc;
      }

      .cls-16 {
        fill: #c0e7fb;
      }

      .cls-17 {
        fill: #bbe9fb;
      }

      .cls-18 {
        fill: #4db6e8;
      }

      .cls-19 {
        fill: #55bdef;
      }

      .cls-20 {
        fill: #8dd1f1;
      }

      .cls-21 {
        fill: #95d7f7;
      }

      .cls-22 {
        fill: #fdfdfe;
      }

      .cls-23 {
        fill: #7bcbf2;
      }

      .cls-24 {
        fill: #ccebfb;
      }

      .cls-25 {
        fill: #85d2f6;
      }

      .cls-26 {
        fill: #d1edfb;
      }

      .cls-27 {
        fill: #a3ddf7;
      }

      .cls-28 {
        fill: #a1d8f3;
      }

      .cls-29 {
        fill: #def2fc;
      }

      .cls-30 {
        fill: #fefefe;
      }
    </style>
  </defs>
  <g id="App_Icon_Kit_A" data-name="App Icon Kit A">
    <g id="Notifications_and_Activity_-_Preview" data-name="Notifications and Activity - Preview">
      <g>
        <path class="cls-22" d="M0,132c0-44,0-88,0-132C13.69,0,27.27,0,40.84,0c-2.17,1.59-4.17,3.53-6.54,4.72-6.59,3.3-11.85,8.16-15.17,14.53-4.72,9.03-5.89,18.46-2.91,28.76,3.59,12.4,5.98,25.33,.78,37.95-6.21,15.04-7.65,30.52-4.94,46.34,2.08,12.17,7.3,22.36,19.08,28.54,9.27,4.85,19.17,5.6,28.54,3.78,12.66-2.46,21.5,2.37,29.67,10.61,12.66,12.76,29.92,15.32,45.68,8.88,9.94-4.06,19.92-6.88,30.74-6.14,2.27,.15,4.68-.01,6.86-.63,22.7-6.44,37.53-20.94,43.57-43.95,3.31-12.62,5.02-25.67,11.65-37.32,2.76-4.84,4.57-10.33,6.14-15.72,3.76-12.93,4.14-26.22,1.95-39.39-1.81-10.83-5.91-20.93-15.19-27.7-6.13-4.47-13.27-7.51-20.83-5.15-6.49,2.03-12.49,5.67-18.71,8.59-3.12,1.46-6.15,3.78-9.4,4.14-7.98,.87-15.94,.6-23.94-1.34-7.47-1.82-15.35-3.52-22.9-3.01-7.13,.48-13.95,.29-20.38-2.13-9.27-3.49-18.19-7.95-27.21-12.1C76.63,1.88,76.25,.76,75.71,0c56.12,0,112.23,0,168.35,0V192c-50.47,0-100.94,0-151.42,0-5.57-7.44-12.24-13.72-20.71-17.58-2.32-1.06-5.85-1.02-8.27-.06-9.94,3.91-19.62,2.47-29.36-.43-16.33-4.86-30.34-19.51-31.45-37.41-.1-1.56-1.87-3.01-2.86-4.52Z"/>
        <path class="cls-13" d="M75.71,0c.55,.76,.93,1.88,1.66,2.22,9.02,4.15,17.94,8.61,27.21,12.1,6.43,2.42,13.25,2.61,20.38,2.13,7.55-.51,15.43,1.19,22.9,3.01,8,1.95,15.96,2.21,23.94,1.34,3.24-.35,6.28-2.68,9.4-4.14,6.22-2.91,12.22-6.55,18.71-8.59,7.56-2.37,14.7,.68,20.83,5.15,9.28,6.77,13.38,16.87,15.19,27.7,2.2,13.18,1.81,26.46-1.95,39.39-1.57,5.39-3.38,10.88-6.14,15.72-6.63,11.65-8.34,24.69-11.65,37.32-6.04,23.01-20.87,37.51-43.57,43.95-2.18,.62-4.59,.78-6.86,.63-10.82-.73-20.8,2.08-30.74,6.14-15.76,6.44-33.02,3.89-45.68-8.88-8.17-8.24-17.01-13.07-29.67-10.61-9.37,1.82-19.27,1.07-28.54-3.78-11.78-6.17-17-16.36-19.08-28.54-2.7-15.82-1.26-31.3,4.94-46.34,5.21-12.61,2.81-25.55-.78-37.95-2.98-10.29-1.81-19.73,2.91-28.76,3.33-6.37,8.58-11.23,15.17-14.53,2.37-1.19,4.37-3.12,6.54-4.72,11.62,0,23.24,0,34.87,0ZM16.94,111c0,.67,0,1.33,0,2-.43,2.79-1.17,5.58-1.2,8.37-.02,2.41,.6,4.88,1.23,7.24,1.47,5.54,1.97,11.74,4.88,16.4,9.5,15.2,22.33,16.53,38.74,14.43,9.64-1.23,17.94,.5,25.26,7.14,4.65,4.21,9.35,8.58,14.71,11.71,11.94,6.98,24.43,6.32,36.57,.29,6.55-3.25,13.18-5.1,20.54-4.63,16.31,1.05,29.47-5.93,40.91-16.85,9.59-9.16,12.74-21.34,15.68-33.71,1.91-8.02,3.67-16.33,7.25-23.65,7.03-14.39,11.55-28.9,10.87-45.24-.34-8.09-1.31-15.81-4.17-23.18-2.63-6.76-7.44-12.34-14.05-15.32-9.44-4.26-18.97-3.04-27.28,3.05-9.4,6.89-19.78,7.77-30.73,6.7-12.79-1.25-25.64-2.04-38.33-3.93-7.7-1.15-15.33-3.55-22.67-6.25-8.49-3.12-16.39-8.02-25-10.63-8.65-2.62-17.99-2.97-26.58,.81-5.18,2.28-10.21,5.36-14.58,8.97-7.55,6.23-9.94,15.3-9.63,24.53,.26,7.68,2.25,15.34,3.81,22.94,1.75,8.57,.16,16.74-1.8,25.04-1.85,7.84-2.99,15.84-4.44,23.77Z"/>
        <path class="cls-30" d="M0,132c.99,1.5,2.76,2.96,2.86,4.52,1.11,17.9,15.12,32.55,31.45,37.41,9.74,2.9,19.42,4.34,29.36,.43,2.42-.95,5.94-1,8.27,.06,8.47,3.86,15.13,10.14,20.71,17.58H0c0-20,0-40,0-60Z"/>
        <path class="cls-2" d="M16.94,111c1.45-7.93,2.58-15.94,4.44-23.77,1.96-8.3,3.55-16.47,1.8-25.04-1.55-7.6-3.55-15.26-3.81-22.94-.31-9.24,2.08-18.3,9.63-24.53,4.37-3.61,9.39-6.69,14.58-8.97,8.59-3.78,17.93-3.43,26.58-.81,8.61,2.61,16.51,7.51,25,10.63,7.34,2.7,14.97,5.1,22.67,6.25,12.69,1.9,25.54,2.69,38.33,3.93,10.95,1.07,21.33,.19,30.73-6.7,8.31-6.09,17.84-7.31,27.28-3.05,6.61,2.98,11.42,8.56,14.05,15.32,2.87,7.37,3.83,15.09,4.17,23.18,.69,16.34-3.84,30.85-10.87,45.24-3.57,7.32-5.34,15.63-7.25,23.65-2.94,12.37-6.09,24.56-15.68,33.71-11.44,10.92-24.6,17.89-40.91,16.85-7.36-.47-13.99,1.37-20.54,4.63-12.15,6.03-24.63,6.69-36.57-.29-5.36-3.13-10.07-7.5-14.71-11.71-7.33-6.64-15.63-8.37-25.26-7.14-16.41,2.09-29.24,.77-38.74-14.43-2.91-4.66-3.42-10.87-4.88-16.4-.63-2.37-1.25-4.83-1.23-7.24,.03-2.79,.77-5.58,1.2-8.37,.99,6.45,1.87,12.92,2.99,19.34,2.85,16.3,17.32,26.43,33.61,24.93,10.3-.95,20.72-2.57,30.14,3.73,2.66,2,5.31,4,7.97,6,.33,.33,.66,.67,1,1,1.33,1.33,2.66,2.67,3.98,4,.33,.33,.66,.67,1,1,4.48,2.31,8.78,5.17,13.5,6.73,3.16,1.04,6.92,.25,10.4,.27h2.99c3.32-1.33,6.64-2.67,9.96-4,.66,0,1.33,0,1.99,0,5.31-2,10.63-4,15.94-6,2.32,0,4.65,0,6.97,0,2.99,0,5.98,0,8.97,0h1.99c3.65-1.33,7.31-2.67,10.96-4,7.5-3.92,13.75-9.32,18.93-16,.66-1,1.33-2,1.99-3,1-1.33,1.99-2.67,2.99-4,0-.33,0-.67,0-1,1.33-2.67,2.65-5.33,3.98-8,.33-1.67,.66-3.33,1-5,1-4,1.99-8,2.99-12,0-1.67,0-3.33,0-5,.67-1.04,1.5-2.02,1.98-3.14,1.99-4.66,3.88-9.36,5.78-14.06,2.69-6.66,5.53-13.27,7.89-20.04,.43-1.23-1.09-3.15-1.71-4.76,0-.66,0-1.33,0-1.99,.95-.47,2.72-.95,2.72-1.41-.1-6.53-.45-13.07-.74-19.6,0-1.33,0-2.67,0-4-2.61-5.8-4.64-11.95-7.96-17.31-6.04-9.76-19.51-11.82-29.7-5.69-6.51,3.91-13.01,8.76-21.44,8.14-.84-.06-1.77,1.21-2.66,1.86-.66,0-1.33,0-1.99,0-5.31-.33-10.63-.67-15.94-1-2.99-.33-5.98-.67-8.96-1-.95-.66-1.87-1.84-2.86-1.91-6.91-.49-13.83-.83-20.75-1.07-7.55-.26-14.46-2.02-21.04-6.13-12.44-7.78-25.48-14.1-40.85-12.92-13.28,1.02-23.64,6.57-29.91,18.74-3.77,7.32-2.77,15.22-1.85,22.82,.76,6.26,3.08,12.32,4.71,18.47,0,.67,0,1.33,0,2-1.54,6.44-3.1,12.87-4.58,19.33-.11,.49,.38,1.11,.6,1.67,0,1,0,2,0,3-4.31,3.58-4.33,8.71-5.04,13.66-.26,1.84-1.26,3.57-1.93,5.34Z"/>
        <path class="cls-3" d="M16.94,111c.66-1.78,1.66-3.51,1.93-5.34,.71-4.95,.73-10.08,5.04-13.66,0,1,0,2,0,3-.33,2.33-.66,4.67-1,7,0,1,0,2,0,3,0,1,0,2,0,3-.97,1.8-2.88,3.69-2.73,5.39,.52,5.9,1.76,11.74,2.73,17.61,0,.67,0,1.33,0,2,.91,5.41,2.87,10.17,7.97,13,.33,.33,.66,.67,1,1,4.9,5.83,11.28,8.09,16.93,6,2.66,0,5.31,0,7.97,0,7.64,1,15.28,2,22.91,2.99,1.33,.67,2.66,1.33,3.98,2,0,1,0,2,0,3h0c-9.42-6.3-19.84-4.68-30.14-3.73-16.29,1.5-30.76-8.63-33.61-24.93-1.12-6.42-2-12.89-2.99-19.34,0-.67,0-1.33,0-2Z"/>
        <path class="cls-29" d="M227.14,68c0,.66,0,1.33,0,1.99-1.44,5.16-2.59,10.42-4.39,15.45-2.96,8.26-6.35,16.38-9.56,24.55-1.33,3.33-2.65,6.67-3.98,10,0,.67,0,1.33,0,2-.99,0-1.99,0-2.98,0,.4-2.94,.26-6.08,1.28-8.78,4.52-11.92,9.74-23.59,13.93-35.62,2.05-5.9,3.4-12.42,3.24-18.61-.16-6.53-1.24-13.07-3.84-19.59-3-7.53-7.93-11.47-14.83-13.84-1.29-.44-3.17,.85-4.78,1.34l-4.83,.15c-1.68,.42-3.39,.73-5.04,1.27-5.69,1.85-11.36,3.77-17.03,5.67,0-.33,0-.67,0-1,1.33-.68,2.71-1.27,3.97-2.04,2.04-1.25,4-2.63,5.99-3.95,.66,0,1.33,0,1.99,0,4.84-1.87,9.7-3.72,14.52-5.65,.28-.11,.29-.88,.43-1.35,1.33,0,2.66,0,3.98,0,1.01,.95,1.86,2.42,3.04,2.78,8.15,2.46,12.77,8.08,15.39,15.95,.97,2.93,2.95,5.52,4.48,8.27-.33,7-.65,14-.98,21Z"/>
        <path class="cls-3" d="M27.89,66c-1.63-6.15-3.95-12.21-4.71-18.47-.92-7.6-1.92-15.49,1.85-22.82C31.31,12.54,41.66,6.99,54.95,5.97c15.37-1.18,28.42,5.13,40.85,12.92,6.58,4.12,13.49,5.88,21.04,6.13,6.92,.23,13.85,.58,20.75,1.07,.99,.07,1.91,1.25,2.86,1.91-12.62-1-25.24-2-37.86-3-1.41-.37-2.93-.5-4.2-1.15-6.94-3.55-13.81-7.23-20.7-10.86l-5.98-3-4.98-1c-5.75-.03-11.64-.83-17.21,.16-4.11,.73-7.8,3.81-11.68,5.84-.66,.33-1.33,.67-1.99,1-1,1-1.99,2-2.99,3-.33,.67-.67,1.33-1,2-2.07,3.28-4.38,6.42-6.14,9.86-2.88,5.62-.98,17.28,3.14,21.15,0,.33,.01,.66,0,1-.33,2.02-.8,4.04-.95,6.08-.17,2.3-.04,4.61-.04,6.92Z"/>
        <path class="cls-6" d="M200.23,150c-5.18,6.68-11.43,12.08-18.93,16-3.65,1.33-7.31,2.67-10.96,4-.66,0-1.33,0-1.99,0-2.99-1.47-5.98-3.83-8.97,0-2.32,0-4.65,0-6.97,0-3.65,.33-7.31,.67-10.96,1,2.43-4.45,6.84-4.86,11.05-4.92,9.06-.14,18.26,.79,26.77-3.18,4.3-2,9.39-3.39,11-8.9,.33-.33,.66-.67,.99-1,4.65-2.04,8.24-5.05,10.2-10,.63-1.58,2.46-2.68,3.75-4,0,1,0,2,0,3,0,.33,0,.67,0,1-1,1.33-1.99,2.67-2.99,4-.66,1-1.33,2-1.99,3Z"/>
        <path class="cls-3" d="M205.21,20c-1.33,0-2.66,0-3.98,0-6.25-.41-11.02,2.4-14.94,7-.66,0-1.33,0-1.99,0-1.09,.38-2.15,.92-3.27,1.09-4.55,.7-9.11,1.28-13.67,1.9,.89-.65,1.82-1.92,2.66-1.86,8.42,.62,14.93-4.24,21.44-8.14,10.2-6.12,23.67-4.06,29.7,5.69,3.32,5.36,5.35,11.51,7.96,17.31-1.32-2.13-2.6-4.28-3.96-6.38-2.59-4-4.63-8.59-8-11.76-3.05-2.87-6.72-6.4-11.95-4.86Z"/>
        <path class="cls-6" d="M102.6,25c12.62,1,25.24,2,37.86,3,2.99,.33,5.98,.67,8.96,1,4.65,1.33,9.3,2.66,13.95,4-2.21,.3-4.45,.99-6.62,.83-16.06-1.18-32.11-2.53-48.16-3.83-1.99-1.66-3.99-3.33-5.98-4.99Z"/>
        <path class="cls-3" d="M213.18,110c3.21-8.18,6.6-16.29,9.56-24.55,1.8-5.03,2.95-10.29,4.39-15.45,.62,1.6,2.14,3.52,1.71,4.76-2.37,6.77-5.2,13.38-7.89,20.04-1.9,4.7-3.8,9.4-5.78,14.06-.48,1.13-1.31,2.1-1.98,3.14,0-.67,0-1.34,0-2Z"/>
        <path class="cls-6" d="M136.47,176c-.66,0-1.33,0-1.99,0-3.32,1.33-6.64,2.67-9.96,4-1,0-1.99,0-2.99,0-5.81-1.59-11.62-3.13-17.41-4.78-2.2-.62-4.33-1.48-6.49-2.22-.33-.33-.66-.67-1-1-.66-1.33-1.33-2.67-1.99-4,3.26,1.75,6.53,3.47,9.77,5.25,8.43,4.62,17.14,5.11,26.08,1.73,3.35-1.26,6.65-2.65,9.97-3.98-1.33,1.67-2.66,3.33-3.99,5Z"/>
        <path class="cls-6" d="M205.21,20c5.23-1.55,8.9,1.98,11.95,4.86,3.37,3.17,5.41,7.77,8,11.76,1.36,2.1,2.64,4.25,3.96,6.38,0,1.33,0,2.67,0,4-.33,0-.67,0-1,0-1.52-2.75-3.5-5.34-4.48-8.27-2.62-7.88-7.24-13.49-15.39-15.95-1.18-.36-2.03-1.83-3.04-2.78Z"/>
        <path class="cls-3" d="M23.91,89c-.21-.56-.71-1.19-.6-1.67,1.48-6.45,3.04-12.89,4.58-19.33,.99,0,1.99,0,2.98,0,0,2.67,0,5.33,0,8-1,2.67-1.99,5.33-2.99,8,0,.67,0,1.33,0,2-1.33,1-2.65,2-3.98,3Z"/>
        <path class="cls-6" d="M30.88,68c-.99,0-1.99,0-2.98,0,0-.67,0-1.33,0-2,0-2.31-.13-4.63,.04-6.92,.15-2.04,.62-4.05,.95-6.08,1,.34,1.99,.68,2.99,1.01,0,3,0,5.99,0,8.99-.33,1.67-.66,3.33-1,5Z"/>
        <path class="cls-3" d="M97.62,173c2.16,.75,4.3,1.6,6.49,2.22,5.79,1.64,11.61,3.19,17.41,4.78-3.49-.03-7.25,.77-10.4-.27-4.72-1.56-9.02-4.42-13.5-6.73Z"/>
        <path class="cls-3" d="M228.11,47c.33,0,.67,0,1,0,.29,6.53,.63,13.06,.74,19.6,0,.45-1.77,.94-2.72,1.41,.33-7,.65-14,.98-21Z"/>
        <path class="cls-6" d="M167.35,30c4.56-.62,9.12-1.21,13.67-1.9,1.12-.17,2.18-.72,3.27-1.09-1.99,1.32-3.96,2.7-5.99,3.95-1.26,.78-2.64,1.37-3.97,2.04-2.99,0-5.98,0-8.97,0,0-1,0-2,0-3,.66,0,1.33,0,1.99,0Z"/>
        <path class="cls-3" d="M165.36,30c0,1,0,2,0,3-.66,0-1.33,0-1.99,0-4.65-1.33-9.3-2.66-13.95-4,5.31,.33,10.63,.67,15.94,1Z"/>
        <path class="cls-6" d="M206.21,122c.99,0,1.99,0,2.98,0,.33,2.33,.66,4.67,.99,7-.33,1.67-.66,3.33-1,5-1.33,.67-2.65,1.34-3.98,2,.42-1.87,1.07-3.72,1.21-5.62,.16-2.11-.12-4.25-.21-6.38,0-.67,0-1.33,0-2Z"/>
        <path class="cls-3" d="M136.47,176c1.33-1.67,2.66-3.33,3.99-5,.33,0,.66,0,.99,0,3.65-.33,7.31-.67,10.96-1-5.31,2-10.63,4-15.94,6Z"/>
        <path class="cls-3" d="M210.19,129c-.33-2.33-.66-4.67-.99-7,0-.67,0-1.33,0-2,1.33-1,2.65-2,3.98-3-1,4-1.99,8-2.99,12Z"/>
        <path class="cls-6" d="M23.91,89c1.33-1,2.65-2,3.98-3,.34,3.74,.19,7.27-3.98,9,0-1,0-2,0-3,0-1,0-2,0-3Z"/>
        <path class="cls-6" d="M213.18,117c-1.33,1-2.65,2-3.98,3,1.33-3.33,2.65-6.67,3.98-10,0,.67,0,1.34,0,2,0,1.67,0,3.33,0,5Z"/>
        <path class="cls-3" d="M91.65,167c-2.66-2-5.31-4-7.97-6,0,0,0,0,0,0,1.99,.33,3.98,.67,5.97,1,.66,.67,1.33,1.33,1.99,2,0,1,0,2,0,3Z"/>
        <path class="cls-3" d="M159.39,170c2.99-3.83,5.98-1.47,8.97,0-2.99,0-5.98,0-8.97,0Z"/>
        <path class="cls-3" d="M170.34,170c3.65-1.33,7.31-2.67,10.96-4-3.65,1.33-7.31,2.67-10.96,4Z"/>
        <path class="cls-3" d="M124.52,180c3.32-1.33,6.64-2.67,9.96-4-3.32,1.33-6.64,2.67-9.96,4Z"/>
        <path class="cls-3" d="M205.21,136c1.33-.67,2.65-1.34,3.98-2-1.33,2.67-2.65,5.33-3.98,8,0-1,0-2,0-3,0-1,0-2,0-3Z"/>
        <path class="cls-3" d="M94.64,168c.66,1.33,1.33,2.67,1.99,4-1.33-1.33-2.66-2.67-3.98-4,.33,0,.67,0,1,0,.33,0,.66,0,.99,0Z"/>
        <path class="cls-3" d="M202.22,147c1-1.33,1.99-2.67,2.99-4-1,1.33-1.99,2.67-2.99,4Z"/>
        <path class="cls-6" d="M93.64,167.99c-.33,0-.67,0-1,0-.33-.33-.66-.67-1-1,0-1,0-2,0-3,.66,0,1.33,0,1.99,0,0,1.33,0,2.66,0,3.99Z"/>
        <path class="cls-3" d="M200.23,150c.66-1,1.33-2,1.99-3-.66,1-1.33,2-1.99,3Z"/>
        <path class="cls-29" d="M22.91,133c0-.67,0-1.33,0-2,.33-1.34,.67-2.67,1-4.01,4.01,.8,3.3,4.3,3.98,7.01,.2,3.38,1.21,6.18,4.97,7.01,.33,.33,.66,.67,.99,1,.9,4.85,5.24,6.04,8.74,6.56,7.29,1.09,14.76,1.03,22.15,1.44-1.11,.66-2.16,1.51-3.35,1.94-1.48,.53-3.07,.72-4.62,1.05-2.66,0-5.31,0-7.97,0-3.79-1.4-7.57-2.82-11.37-4.18-1.83-.66-3.71-1.22-5.56-1.82-.33-.33-.66-.67-1-1-2.66-4.33-5.31-8.67-7.97-13Z"/>
        <path class="cls-29" d="M23.91,95c4.17-1.73,4.32-5.26,3.98-9,0-.67,0-1.33,0-2,4.3-1.42,2.57-5.12,2.99-8,0-2.67,0-5.33,0-8,.33-1.67,.66-3.33,1-5,2.17,9.43,1.16,18.56-2.02,27.65-1.98,5.67-3.33,11.56-4.96,17.36h-1.98c0-1.01,0-2.01,0-3.01,0-1,0-2,0-3,.33-2.33,.66-4.67,1-7Z"/>
        <path class="cls-6" d="M22.91,108c.66,0,1.32,0,1.98,0,0,1.33,0,2.66,0,3.99-3.63,2.65-1.99,5.86-.97,9.01,0,2,0,3.99,0,5.99-.33,1.34-.67,2.67-1,4.01-.97-5.86-2.21-11.7-2.73-17.61-.15-1.7,1.76-3.59,2.73-5.39Z"/>
        <path class="cls-6" d="M56.78,153c1.55-.34,3.15-.52,4.62-1.05,1.2-.43,2.24-1.28,3.35-1.94,.66,0,1.32,0,1.98,0,1,.33,1.99,.66,2.99,.99,2.65,.34,5.31,.67,7.96,1.01,.67,1.33,1.33,2.66,2,3.99-7.64-1-15.28-2-22.91-2.99Z"/>
        <path class="cls-29" d="M79.7,156c-.67-1.33-1.33-2.66-2-3.99,7.21,1.46,12.52,5.47,15.95,11.99h0c-.66,0-1.33,0-1.99,0-.66-.67-1.33-1.33-1.99-2-1.99-1.33-3.98-2.67-5.97-4-1.33-.67-2.66-1.33-3.98-2Z"/>
        <path class="cls-6" d="M31.88,147c1.86,.6,3.73,1.16,5.56,1.82,3.8,1.37,7.58,2.79,11.37,4.18-5.65,2.09-12.03-.17-16.93-6Z"/>
        <path class="cls-6" d="M22.91,133c2.66,4.33,5.31,8.67,7.97,13-5.1-2.83-7.06-7.59-7.97-13Z"/>
        <path class="cls-6" d="M83.68,158c1.99,1.33,3.98,2.67,5.97,4-1.99-.33-3.98-.67-5.97-1,0-1,0-2,0-3Z"/>
        <path class="cls-6" d="M22.91,102c0,1,0,2,0,3,0-1,0-2,0-3Z"/>
        <path class="cls-10" d="M196.39,27.06c1.61-.05,3.22-.1,4.83-.15,2.69,2.69,5.38,5.38,8.07,8.07,.34,3,.67,6,1.01,9-.41,1.93-.81,3.87-1.22,5.8-.67,1.05-1.34,2.1-2.01,3.16-.08,.73-.15,1.46-.23,2.19,.76,1.02,1.51,2.05,2.27,3.07,.11,2.27,.22,4.54,.33,6.81-1.73,5.03-3.46,10.05-5.2,15.08-8.43,9.45-16.22,19.17-13.71,33.19,.54,3.23,1.09,6.46,1.63,9.69-.3,.05-.6,.05-.89,0-1.69-1.37-3.38-2.73-4.79-3.87-.69,3.26-1.33,6.29-2.05,9.67,.54,.49,1.63,1.47,2.72,2.44,.99,1.34,1.98,2.69,2.98,4.03,.26,.93,.53,1.86,.79,2.79,0,1.42,.02,2.84,.03,4.26-1.04-.54-2.08-1.07-3.13-1.61-4.44-6.52-8.19-6.35-11.53,.5-1.41,2.9-2.94,5.75-4.41,8.62-2.85,1.8-5.7,3.6-8.55,5.39-2.25-.38-4.51-.75-6.76-1.13,0,0,.43,0,.43,0l.39-.19c.98-.67,1.96-1.34,2.94-2.01,1.41-1.27,2.81-2.55,4.22-3.82,.02-.68,.35-1.64,.02-2-1.34-1.45-2.88-2.71-4.35-4.04-.67-2.33-1.34-4.65-2.15-7.48-1.91,1.59-3.51,2.91-5.11,4.24-1.19,.46-2.37,.91-3.56,1.37-2-.03-4-.07-6-.1,2.49-1.96,4.98-3.91,7.47-5.87-.26-.46-.52-.92-.79-1.39-3.52,.38-7.04,.76-10.55,1.14,2.07-3.47,2.5-8.18,7.59-9.29,11.53-2.51,11.38-5.32,11.29-13.94-.03-3.16,1.09-5.05,3.34-7.51,5.24-5.74,7.46-5.36,1.92-12.56-3.7-4.81-4.76-8.45-1.73-14.16,2.85-5.37,1.15-7.88-4.56-10.07-2.42-.93-5.02-1.4-7.56-2.08-.43-1.85-.71-3.66-1.27-5.38-2.33-7.23-6.22-9.85-13.09-7.63-5.36,1.73-8.24-.54-10.9-4.43,6.72,.18,13.44,.36,20.16,.54,2.88,1.2,5.75,2.41,8.63,3.61,2.09,2.34,4.17,4.68,6.17,6.93,2.73-1.27,5.32-2.48,7.91-3.68,5.07-.6,10.2-.91,15.2-1.89,5.83-1.15,11.54-2.9,17.3-4.39,1.37-1.66,2.74-3.32,4.11-4.98,1.06-3.38,1.7-6.69-1.7-9.24-.56-.97-1.12-1.95-1.69-2.92-1.43-1.26-2.86-2.52-4.29-3.77Z"/>
        <path class="cls-8" d="M196.39,27.06c1.43,1.26,2.86,2.52,4.29,3.77-6.13,1.72-12.26,3.45-18.38,5.17-2.99,.99-5.98,1.99-8.98,2.98-.66,0-1.32,0-1.99,0-2.54,0-5.08,.1-7.61,0-15.19-.64-30.37-1.71-45.55-1.82-7.97-.06-14.84-1.99-21.42-6.36-10.25-6.81-20.32-13.91-33.18-15.48-10.38-1.27-25.1,4.55-29.34,16.26-.83,2.28-.97,4.73,2.36,5.42-.9,1.06-1.81,2.13-2.71,3.19,.12,4.42-1,9.36,.59,13.15,3.58,8.55,2.13,17.33,1.81,25.77-.32,8.54-2.8,17.27-5.78,25.38-3.81,10.38-.62,19.66,2.35,29.14,.44,1.39,2.55,2.25,3.88,3.36,.36,1.71,.72,3.42,1.09,5.12-.1,.29-.18,.58-.24,.88-1.25-.33-2.49-.67-3.74-1-.33-.33-.66-.67-.99-1-1.66-2.34-3.31-4.67-4.97-7.01-.68-2.7,.03-6.21-3.98-7.01,0-2,0-3.99,0-5.99,.32-3,.64-6.01,.97-9.01,0-1.33,0-2.66,0-3.99,1.63-5.79,2.98-11.69,4.96-17.36,3.18-9.09,4.19-18.22,2.02-27.65,0-3,0-5.99,0-8.99-.33-5.37-.7-10.73-.96-16.1-.11-2.3-.02-4.61-.02-6.92,1.25-2.96,1.82-6.57,3.88-8.75,7.25-7.65,16.39-11.11,27-10.27,.66,0,1.32,0,1.98,0,1.75,.36,3.61,.45,5.22,1.12,6.93,2.88,13.79,5.92,20.68,8.91,1,.67,1.99,1.33,2.99,2,0,0,0,0,0,0,1.35,1.51,2.44,3.5,4.11,4.45,6.82,3.91,14.31,5.39,22.15,5.59,8.81,.22,17.71,.1,26.41,1.29,9.86,1.35,19.5,2.92,29.02-1.32,5.67-1.9,11.34-3.82,17.03-5.67,1.64-.53,3.36-.85,5.04-1.27Z"/>
        <path class="cls-24" d="M209.29,34.99c-2.69-2.69-5.38-5.38-8.07-8.07,1.61-.49,3.49-1.78,4.78-1.34,6.9,2.37,11.83,6.3,14.83,13.84,2.6,6.51,3.68,13.05,3.84,19.59,.15,6.19-1.19,12.71-3.24,18.61-4.19,12.03-9.42,23.7-13.93,35.62-1.02,2.7-.89,5.84-1.28,8.78,0,.67,0,1.33,0,2-.32,.55-.69,1.08-.94,1.66-2.6,6.05-4.95,12.21-7.84,18.12-1.61,3.29-4.09,6.16-6.17,9.22-.33,.33-.66,.67-.99,1-4.19,2.44-8.26,5.13-12.6,7.28-8.12,4.03-16.81,1.39-25.25,1.71-1.7-.47-3.47-1.48-5.09-1.27-2.35,.3-4.59,1.47-6.88,2.28,5-6.13,11.58-5.83,18.46-4.73,1.76,.28,3.64-.15,5.46-.26,5.1-1.1,10.52-1.46,15.22-3.49,5.08-2.19,10.1-5.33,11.68-11.51h0c1.43-1.22,3.12-2.24,4.24-3.7,5.68-7.43,5.34-16.99,8.63-25.3,2.88-7.29,5.09-14.84,7.84-22.19,2.18-5.83,6.01-11.35,6.78-17.32,1.18-9.06,1.2-18.5,.03-27.56-.66-5.14-2.65-11.4-9.5-12.96Z"/>
        <path class="cls-15" d="M174.33,34c-9.51,4.24-19.16,2.67-29.02,1.32-8.7-1.19-17.6-1.06-26.41-1.29-7.84-.2-15.33-1.67-22.15-5.59-1.67-.96-2.75-2.94-4.11-4.45,5.31,2,10.63,4,15.94,6,16.05,1.3,32.1,2.65,48.16,3.83,2.18,.16,4.41-.53,6.62-.83,.66,0,1.33,0,1.99,0,2.99,0,5.98,0,8.97,0,0,.33,0,.67,0,1Z"/>
        <path class="cls-6" d="M186.28,27c3.93-4.6,8.69-7.4,14.94-7-.14,.46-.15,1.24-.43,1.35-4.82,1.93-9.67,3.78-14.52,5.65Z"/>
        <path class="cls-29" d="M108.58,30c-5.31-2-10.63-4-15.94-6,0,0,0,0,0,0-1-.67-1.99-1.33-2.99-2-6.89-2.98-13.75-6.03-20.68-8.91-1.62-.67-3.48-.76-5.22-1.12,1-.99,2-1.99,3-2.98,1.66,.33,3.32,.67,4.98,1,1.99,1,3.99,2,5.98,3,6.89,3.63,13.76,7.31,20.7,10.86,1.27,.65,2.79,.78,4.2,1.15,1.99,1.66,3.99,3.33,5.98,4.99Z"/>
        <path class="cls-29" d="M61.77,11.98c-10.61-.84-19.75,2.63-27,10.27-2.07,2.18-2.63,5.79-3.88,8.75-.99,0-1.99,0-2.98,0,1.33-3.34,2.65-6.67,3.98-10.01,.33-.67,.67-1.33,1-2,1-1,1.99-2,2.99-3,.66-.33,1.33-.67,1.99-1,3.96-1.48,7.81-3.52,11.89-4.28,3.94-.74,8.43-2.85,12.02,1.26Z"/>
        <path class="cls-6" d="M31.87,21c-1.33,3.34-2.65,6.67-3.98,10.01,0,1,0,1.99,0,2.99,0,1.33,0,2.67,0,4l.98,14c-4.12-3.86-6.02-15.53-3.14-21.15,1.76-3.43,4.08-6.58,6.14-9.86Z"/>
        <path class="cls-26" d="M28.87,52c-.33-4.67-.65-9.34-.98-14,0-1.33,0-2.67,0-4,0-1,0-1.99,0-2.99,.99,0,1.99,0,2.98,0,0,2.31-.09,4.62,.02,6.92,.27,5.37,.64,10.73,.96,16.1-1-.34-1.99-.68-2.99-1.01,0-.33,0-.66,0-1Z"/>
        <path class="cls-6" d="M61.77,11.98c-3.59-4.12-8.09-2-12.02-1.26-4.09,.77-7.94,2.8-11.89,4.28,3.88-2.03,7.57-5.11,11.68-5.84,5.57-.99,11.46-.19,17.21-.16-1,.99-2,1.99-3,2.98-.66,0-1.32,0-1.98,0Z"/>
        <path class="cls-6" d="M77.7,13c-1.99-1-3.99-2-5.98-3,1.99,1,3.99,2,5.98,3Z"/>
        <path class="cls-6" d="M35.86,16c-1,1-1.99,2-2.99,3,1-1,1.99-2,2.99-3Z"/>
        <path class="cls-29" d="M152.41,162.99c8.44-.32,17.13,2.32,25.25-1.71,4.34-2.15,8.41-4.84,12.6-7.28-1.61,5.51-6.7,6.9-11,8.9-8.51,3.97-17.71,3.04-26.77,3.18-4.21,.06-8.61,.47-11.05,4.92-.33,0-.66,0-.99,0-3.32,1.33-6.63,2.72-9.97,3.98-8.94,3.37-17.65,2.88-26.08-1.73-3.24-1.78-6.51-3.5-9.77-5.25-.33,0-.66,0-.99,0,0-1.33,0-2.66,0-3.99,0,0,0,0,0,0,2.99,1.34,5.97,2.67,8.96,4.01,1.15,1.24,2.08,2.92,3.49,3.66,8.46,4.41,17.1,3.68,25.64,.2,6.94-2.84,13.79-5.91,20.68-8.87Z"/>
        <path class="cls-29" d="M191.26,153c2.09-3.06,4.56-5.93,6.17-9.22,2.88-5.9,5.24-12.07,7.84-18.12,.25-.58,.62-1.11,.94-1.66,.09,2.13,.38,4.27,.21,6.38-.15,1.89-.79,3.75-1.21,5.62,0,1,0,2,0,3-1.28,1.32-3.12,2.42-3.75,4-1.96,4.94-5.54,7.96-10.2,10Z"/>
        <path class="cls-6" d="M30.88,76c-.42,2.88,1.32,6.58-2.99,8,1-2.67,1.99-5.33,2.99-8Z"/>
        <path class="cls-26" d="M102.6,168.01c-2.99-1.34-5.97-2.67-8.96-4.01-3.43-6.52-8.74-10.52-15.95-11.99-2.65-.34-5.31-.67-7.96-1.01-1-.33-1.99-.66-2.99-.99-.66,0-1.32,0-1.98,0-7.39-.41-14.86-.36-22.15-1.44-3.5-.52-7.84-1.71-8.74-6.56,1.24,.33,2.49,.67,3.74,1,1.06,.64,2.12,1.28,3.18,1.93,4.94,.7,9.89,1.4,14.83,2.09l.84,1.22c.17-.41,.34-.81,.5-1.22,2.64-.02,5.35,.33,7.91-.14,8.54-1.54,15.84,1.8,22.5,6.21,5.5,3.65,10.19,8.55,15.24,12.89v2h0Z"/>
        <path class="cls-26" d="M27.9,134c1.66,2.34,3.31,4.67,4.97,7.01-3.76-.83-4.77-3.63-4.97-7.01Z"/>
        <path class="cls-29" d="M24.88,111.99c-.32,3-.64,6.01-.97,9.01-1.03-3.15-2.66-6.36,.97-9.01Z"/>
        <path class="cls-29" d="M66.74,150.01c1,.33,1.99,.66,2.99,.99-1-.33-1.99-.66-2.99-.99Z"/>
        <path class="cls-12" d="M124.59,46.86c2.65,3.89,5.54,6.16,10.89,4.43,6.88-2.22,10.77,.4,13.09,7.63,.55,1.72,.84,3.53,1.27,5.38,2.53,.68,5.13,1.15,7.56,2.08,5.71,2.19,7.41,4.7,4.56,10.07-3.03,5.72-1.97,9.35,1.73,14.16,5.53,7.2,3.32,6.82-1.92,12.56-2.25,2.47-3.37,4.35-3.34,7.51,.09,8.62,.24,11.43-11.29,13.94-5.09,1.11-5.52,5.83-7.59,9.29-.11,.96-.23,1.92-.34,2.87-.26,.02-.51,.07-.75,.13-3.71-.62-7.94-.33-11.01-2.09-3.59-2.06-5.84-1.16-8.94,.41-8.77,4.44-10.7,4.64-15.68-5.67-.28-.59-.45-1.23-.77-2.11-1.99,0-3.96,.02-5.93,0-9.73-.12-11.23-1.48-10.8-11.3,.17-3.88-.67-6.11-4.13-8.42-6.86-4.58-7.38-7.97-3.04-14.78,2.11-3.32,2.68-6.03,1.25-9.98-3.47-9.6-2.03-12.72,6.71-15.52,2.83-.91,3.44-2.08,3.74-4.73,1.08-9.71,4.32-12.24,13.55-10.19,3.87,.86,6.13-.44,8.45-3.17,2.65-3.12,5.83-5.34,10.26-3.39,.83,.29,1.66,.58,2.49,.87Zm-9.5,53.42c-3.82-2.72-7.11-5.07-10.59-7.54-1.9,2.81-3.51,5.18-5.28,7.81,6.07,4.38,11.86,8.54,17.92,12.92,8.97-10.83,17.64-21.24,26.18-31.75,.49-.6,.42-2.43-.11-2.93-1.85-1.78-4.01-3.24-6.32-5.01-7.32,8.9-14.46,17.58-21.81,26.51Z"/>
        <path class="cls-1" d="M209.29,34.99c6.86,1.56,8.84,7.81,9.5,12.96,1.17,9.06,1.15,18.5-.03,27.56-.77,5.96-4.6,11.49-6.78,17.32-2.74,7.35-4.95,14.9-7.84,22.19-3.29,8.31-2.95,17.87-8.63,25.3-1.12,1.46-2.81,2.48-4.24,3.7-.1-.57-.21-1.14-.31-1.7,0-1.42-.02-2.84-.03-4.26,4.68-4.77,6.24-11.12,8.26-17.13,2.97-8.84,4.19-18.48,8.33-26.66,5.91-11.67,10.02-23.42,8.43-36.43-.59-4.79,.28-10.93-5.65-13.83-.34-3-.67-6-1.01-9Z"/>
        <path class="cls-21" d="M210.3,43.99c5.93,2.9,5.06,9.04,5.65,13.83,1.59,13.01-2.52,24.76-8.43,36.43-4.14,8.18-5.36,17.82-8.33,26.66-2.02,6.01-3.58,12.36-8.26,17.13-.26-.93-.53-1.86-.79-2.79,3.08-8.23,7.27-16.14,7.07-25.28,0-.66,.01-1.32,.02-1.98,1-1.32,2.23-2.53,2.94-3.99,.86-1.75,1.24-3.74,1.92-5.59,3.95-10.77,8.52-21.37,11.63-32.38,1.43-5.05,.02-10.92-4.41-15.08l-.23-1.16,1.22-5.8Z"/>
        <path class="cls-21" d="M153.38,51.02c-2.88-1.2-5.75-2.41-8.63-3.61,1.23-.45,2.43-1.18,3.7-1.31,4.74-.47,9.54-.47,14.24-1.2,2.64-.41,5.11-1.89,7.66-2.89,10.08-1.71,20.17-3.35,30.21-5.24,.76-.14,1.21-1.97,1.81-3.01,3.4,2.56,2.77,5.86,1.7,9.24-4.06-.24-8.2-1.11-12.16-.57-6.58,.89-13.06,2.61-19.56,4.09-6.34,1.44-12.65,3-18.98,4.5Z"/>
        <path class="cls-11" d="M153.38,51.02c6.32-1.51,12.64-3.07,18.98-4.5,6.5-1.47,12.98-3.2,19.56-4.09,3.96-.53,8.1,.34,12.16,.57-1.37,1.66-2.74,3.32-4.11,4.98-2.42-.32-4.93-1.22-7.24-.87-7.72,1.19-15.38,2.75-23.02,4.39-.9,.19-1.5,1.81-2.25,2.76-2.59,1.2-5.18,2.41-7.91,3.68-2-2.24-4.09-4.59-6.17-6.93Z"/>
        <path class="cls-9" d="M170.35,42.01c-2.55,1-5.02,2.48-7.66,2.89-4.69,.73-9.5,.73-14.24,1.2-1.26,.13-2.46,.86-3.7,1.31-6.72-.18-13.44-.36-20.16-.54-.83-.29-1.66-.58-2.49-.87-.24-.87-.48-1.74-.72-2.6,1.26-.68,2.51-1.94,3.77-1.95,4.77-.03,9.54,.34,14.31,.56h20.92c.66,0,1.33,0,1.99,0,1.33,0,2.66,0,3.99-.01,1.32,0,2.65-.01,3.97-.02v.03Z"/>
        <path class="cls-7" d="M209.31,50.95c4.42,4.16,5.84,10.02,4.41,15.08-3.11,11.01-7.68,21.61-11.63,32.38-.68,1.85-1.05,3.84-1.92,5.59-.72,1.46-1.94,2.67-2.94,3.99-.34-1.66-.67-3.33-1.01-4.99,.01-.67,.03-1.33,.04-2,.9-.29,2.35-.32,2.6-.9,2.87-6.56,5.57-13.2,8.28-19.83,.42-1.03,.39-2.35,1.04-3.15,3.1-3.81,2.31-7.93,1.27-12.11-.11-2.27-.22-4.54-.33-6.81-.76-1.02-1.51-2.05-2.27-3.07,.08-.73,.15-1.46,.23-2.19l2.24-2Z"/>
        <path class="cls-16" d="M164.37,159c-1.82,.11-3.7,.54-5.46,.26-6.87-1.09-13.46-1.39-18.46,4.73-3.32,1.67-6.64,3.34-9.95,5.01-2,.33-3.99,.66-5.99,.99,1.05-.86,2.12-1.71,3.15-2.59,1.29-1.11,2.56-2.26,3.83-3.4h0c4.04,.56,6-2.23,7.97-5,.33-.33,.67-.67,1-1,4.32-1.33,8.63-2.66,12.95-3.98,1.06,.02,2.12,.04,3.17,.06,2.25,.38,4.51,.75,6.76,1.13-.03,.28-.02,.57,.02,.85l1.01,2.95Z"/>
        <path class="cls-1" d="M202.37,33.76c-.6,1.04-1.05,2.87-1.81,3.01-10.05,1.88-20.13,3.53-30.21,5.24,0,0-.01-.03-.01-.03,.34-.99,.67-1.99,1.01-2.98,.66,0,1.32,0,1.99,0,3.25-.22,7.02,1.16,8.98-2.98,6.13-1.72,12.26-3.45,18.38-5.17,.56,.97,1.12,1.95,1.69,2.92Z"/>
        <path class="cls-7" d="M138.45,136.94c.25-.07,.5-.11,.76-.13,1.41,1.08,2.81,2.16,4.21,3.24,2,.03,4,.07,6,.1,2,1.95,3.99,3.9,5.99,5.84-.97-.15-1.97-.19-2.9-.48-5.32-1.66-10.17-1.83-14.32,2.94-1.41,1.62-3.8,2.38-5.75,3.54,.08-1.66,.16-3.33,.24-4.99,.57-.74,1.15-1.48,1.72-2.22,1.35-2.62,2.71-5.23,4.06-7.85Z"/>
        <path class="cls-18" d="M196.26,101c-.01,.67-.03,1.33-.04,2-1.07,1.44-2.32,2.77-3.16,4.33-1.02,1.88-1.69,3.96-2.51,5.95-2.52-14.01,5.27-23.73,13.71-33.19-2.67,6.97-5.33,13.94-8,20.91Z"/>
        <path class="cls-28" d="M163.36,156.06c-.04-.28-.05-.57-.02-.85,2.85-1.8,5.7-3.6,8.55-5.39,6.99-.09,11.17-5.13,15.94-9.12,1.04,.54,2.08,1.07,3.13,1.61,.1,.57,.21,1.14,.31,1.7,0,0,0,0,0,0-1.23,.28-3.08,.15-3.59,.92-5.84,8.83-14.56,11.08-24.32,11.13Z"/>
        <path class="cls-19" d="M167.46,54.26c.74-.95,1.34-2.56,2.25-2.76,7.64-1.64,15.3-3.2,23.02-4.39,2.32-.36,4.82,.54,7.24,.87-5.76,1.49-11.47,3.24-17.3,4.39-5,.99-10.13,1.29-15.2,1.89Z"/>
        <path class="cls-11" d="M187.83,140.7c-4.77,3.99-8.95,9.03-15.94,9.12,1.47-2.87,3-5.72,4.41-8.62,3.33-6.84,7.09-7.02,11.53-.5Z"/>
        <path class="cls-14" d="M196.26,101c2.67-6.97,5.33-13.94,8-20.91,1.73-5.03,3.46-10.05,5.2-15.08,1.04,4.19,1.83,8.31-1.27,12.11-.65,.8-.62,2.12-1.04,3.15-2.71,6.63-5.41,13.27-8.28,19.83-.25,.57-1.71,.61-2.6,.9Z"/>
        <path class="cls-21" d="M160.34,151.88c-.98,.67-1.96,1.34-2.94,2.01-3.93-5.08-11.67-5.03-15.95,.1-3.49,1.26-6.99,2.52-10.48,3.77,.44-1.38,.89-2.76,1.33-4.14,3.36,2.54,4.88-1.36,6.17-2.56,7.08-6.58,13.96-3.69,21.87,.81Z"/>
        <path class="cls-25" d="M160.34,151.88c-7.91-4.5-14.78-7.39-21.87-.81-1.29,1.2-2.81,5.1-6.17,2.56,.04-.54,.08-1.09,.13-1.63,1.94-1.16,4.34-1.92,5.75-3.54,4.15-4.77,9.01-4.59,14.32-2.94,.93,.29,1.93,.32,2.9,.48,3.05,.69,6.1,1.38,9.16,2.07-1.41,1.27-2.81,2.55-4.22,3.82Z"/>
        <path class="cls-7" d="M197.2,109.97c.2,9.15-3.99,17.06-7.07,25.28-.99-1.34-1.98-2.69-2.98-4.03,1.37-2.75,2.75-5.5,4.12-8.25,.3,.05,.6,.04,.89,0,.36-1.54,.52-3.15,1.11-4.59,1.18-2.85,2.6-5.61,3.91-8.41Z"/>
        <path class="cls-11" d="M164.56,148.06c-3.05-.69-6.1-1.38-9.16-2.07-2-1.95-3.99-3.9-5.99-5.84,1.19-.46,2.37-.91,3.56-1.37,2.42,1.08,4.84,2.16,7.26,3.24,1.47,1.33,3.01,2.59,4.35,4.04,.33,.35,0,1.32-.02,2Z"/>
        <path class="cls-14" d="M197.2,109.97c-1.32,2.8-2.74,5.55-3.91,8.41-.59,1.44-.76,3.06-1.11,4.59-.54-3.23-1.09-6.46-1.63-9.69,.82-1.99,1.49-4.06,2.51-5.95,.84-1.56,2.09-2.9,3.16-4.33,.34,1.66,.67,3.33,1.01,4.99,0,.66-.01,1.32-.02,1.98Z"/>
        <path class="cls-14" d="M143.42,140.05c-1.4-1.08-2.81-2.16-4.21-3.24,.11-.96,.22-1.92,.34-2.87,3.52-.38,7.04-.76,10.56-1.14,.26,.46,.52,.92,.79,1.39-2.49,1.96-4.98,3.91-7.47,5.87Z"/>
        <path class="cls-18" d="M191.28,122.98c-1.37,2.75-2.75,5.5-4.12,8.25-1.09-.98-2.18-1.95-2.72-2.44,.72-3.38,1.36-6.41,2.05-9.67,1.41,1.13,3.1,2.5,4.79,3.87Z"/>
        <path class="cls-27" d="M141.45,153.99c4.28-5.13,12.02-5.18,15.95-.1,0,0-.39,.19-.39,.19,0,0-.43,0-.43,0-1.06-.02-2.12-.04-3.17-.06-3.98,0-7.97,0-11.95-.01h-.01Z"/>
        <path class="cls-4" d="M160.23,142.03c-2.42-1.08-4.84-2.16-7.26-3.24,1.6-1.33,3.2-2.65,5.11-4.24,.81,2.83,1.48,5.16,2.15,7.48Z"/>
        <path class="cls-14" d="M209.31,50.95c-.75,.67-1.49,1.33-2.24,2,.67-1.05,1.34-2.1,2.01-3.16,.07,.39,.15,.77,.23,1.16Z"/>
        <path class="cls-14" d="M206.84,55.14c.76,1.02,1.51,2.05,2.27,3.07-.76-1.02-1.51-2.05-2.27-3.07Z"/>
        <path class="cls-5" d="M132.43,152c-.04,.54-.08,1.09-.13,1.63-.44,1.38-.89,2.76-1.33,4.14,0,0-.31-.04-.31-.04l-.15,.28c-1.66,.07-3.32,.13-4.97,.2-2.71,.74-5.41,1.48-8.12,2.21-.98,.81-1.95,1.62-2.93,2.43-1.31-.28-2.63-.57-3.94-.85l-2.33-6.97c-.69-3.42-.22-8.49-2.29-9.97-9.37-6.71-19.68-11.91-31.15-14.27-2.68-1.19-5.35-2.39-8.03-3.58-1.71-1.13-3.4-2.31-5.15-3.39-4.42-2.71-6.2-1.58-6.68,4.18,0,1.33,0,2.67,0,4v3c.01,1,.01,1.99,.01,2.99,.3,1.33,.59,2.66,.89,3.99,.06,.67,.12,1.33,.18,2-.39,.43-.78,.86-1.16,1.29-.74-.43-1.48-.86-2.22-1.29-.41-1.07-.81-2.14-1.22-3.21l-1.42-4.87-.32-5.9v-10.06c-.45-.04-.89-.09-1.34-.13-1.46,2.4-2.91,4.79-4.37,7.19-.64,1.99-1.29,3.99-1.93,5.98-.36,1.66-.72,3.33-1.09,4.99-1.04,1.38-2.07,2.76-3.11,4.15-.36-1.71-.72-3.42-1.09-5.12,.22-2.77,.44-5.54,.65-8.31,1.79-4.23,3.57-8.47,5.36-12.7,3.17-3.79,6.33-7.58,9.5-11.37-.16-.36-.31-.72-.47-1.08-3.66,.57-7.32,1.13-10.98,1.7-2.66,.6-5.33,1.19-7.99,1.79,.03-.64,.07-1.28,.1-1.93,1.34-.98,2.67-1.96,4.01-2.94,.64-.4,1.28-.8,1.92-1.2,1.02-.53,2.25-.84,3.01-1.62,1.5-1.54,2.73-3.33,4.07-5.02,9.18-2.8,8.95-2.75,6.77-12.06-3.67-15.63-3.43-31.37-.27-47.71-2.03,.4-3.86,.76-5.69,1.12-1.63,.51-3.26,1.02-4.89,1.53-1.28-.72-2.56-1.44-3.84-2.16-.03-.98-.06-1.96-.1-2.95,3.35-1.57,6.7-3.13,10.06-4.7,4.26-.1,8.51-.21,12.77-.31,7.84,1.94,15.04,5.12,21.07,10.69,3.87,3.57,7.85,7.02,11.78,10.52,2.98-.03,5.97-.05,8.95-.08,1.75,.12,3.83,.89,5.17,.2,2.41-1.22,4.38-3.32,6.54-5.05,2.38,0,4.76,.01,7.15,.02,.24,.87,.48,1.74,.72,2.6-4.43-1.95-7.61,.27-10.26,3.39-2.32,2.73-4.58,4.03-8.45,3.17-9.23-2.05-12.47,.48-13.55,10.19-.3,2.65-.91,3.83-3.74,4.73-8.74,2.8-10.17,5.92-6.71,15.52,1.43,3.95,.86,6.65-1.25,9.98-4.33,6.81-3.81,10.2,3.04,14.78,3.46,2.31,4.3,4.55,4.13,8.42-.43,9.83,1.07,11.18,10.8,11.3,1.97,.02,3.94,0,5.93,0,.32,.88,.48,1.52,.77,2.11,4.97,10.31,6.91,10.1,15.68,5.67,3.1-1.57,5.36-2.47,8.94-.41,3.07,1.76,7.29,1.47,11.01,2.09-1.35,2.62-2.71,5.23-4.06,7.85-.57,.74-1.15,1.48-1.72,2.22-.08,1.66-.16,3.33-.24,4.99Z"/>
        <path class="cls-17" d="M121.38,43.4c-2.38,0-4.76-.01-7.15-.02-9.71-3.73-18.6-8.79-26.75-15.35-8.44-6.79-18.16-10.46-29.18-10.03-9.48,.37-18.41,6.51-20.4,14.11,.03,.98,.06,1.96,.1,2.94-.46,.65-.93,1.3-1.39,1.96-3.33-.69-3.18-3.14-2.36-5.42,4.24-11.71,18.96-17.53,29.34-16.26,12.85,1.57,22.92,8.67,33.18,15.48,6.58,4.37,13.45,6.3,21.42,6.36,15.19,.12,30.37,1.19,45.55,1.82,2.53,.11,5.07,0,7.61,0-.34,.99-.67,1.99-1.01,2.98-1.32,0-2.65,.01-3.97,.02-1.33,0-2.66,0-3.99,0-.66,0-1.33,0-1.99,0-6.97,0-13.95,0-20.92,0-4.77-.22-9.54-.59-14.31-.56-1.26,0-2.51,1.27-3.77,1.95Z"/>
        <path class="cls-1" d="M32.92,105.11c-.03,.64-.07,1.28-.1,1.93,0,0,.07-.11,.07-.11-.24,.07-.49,.14-.73,.2,.25,.29,.49,.57,.74,.86,.33,2.08,.54,4.18,1.01,6.23,1.1,4.84,2.33,9.66,3.5,14.49-.22,2.77-.44,5.54-.65,8.31-1.34-1.11-3.45-1.97-3.88-3.36-2.97-9.48-6.16-18.77-2.35-29.14,2.98-8.11,5.46-16.84,5.78-25.38,.32-8.44,1.77-17.22-1.81-25.77-1.59-3.8-.48-8.73-.59-13.15,.97-.01,1.93-.03,2.9-.04,.03,.94,.05,1.89,.08,2.83,.26,3.96,.46,7.93,.8,11.88,.93,10.9,2.37,21.78-.48,32.64-1.54,5.84-2.85,11.73-4.27,17.6Z"/>
        <path class="cls-28" d="M51.41,140.78c.41,1.07,.81,2.14,1.22,3.21-2.85-.46-5.8-.59-8.52-1.47-2.68-.87-3.22,.21-3.33,2.41-1.06-.64-2.12-1.28-3.18-1.93,.06-.3,.14-.59,.24-.88,1.04-1.38,2.07-2.76,3.11-4.15,3.49,.93,6.98,1.87,10.47,2.8Z"/>
        <path class="cls-4" d="M36.79,40.16c-.97,.01-1.93,.03-2.9,.04,.91-1.06,1.81-2.13,2.71-3.19,.46-.65,.92-1.31,1.39-1.96,1.28,.72,2.56,1.44,3.84,2.16,0,.59,0,1.17,0,1.76-1.68,.4-3.36,.8-5.05,1.19Z"/>
        <path class="cls-17" d="M182.3,36.01c-1.96,4.14-5.73,2.76-8.98,2.98,2.99-.99,5.98-1.99,8.98-2.98Z"/>
        <path class="cls-15" d="M89.65,22c1,.67,1.99,1.33,2.99,2-1-.67-1.99-1.33-2.99-2Z"/>
        <path class="cls-26" d="M130.5,169c3.32-1.67,6.64-3.34,9.95-5.01,2.29-.8,4.53-1.98,6.88-2.28,1.62-.21,3.39,.81,5.09,1.27-6.89,2.97-13.74,6.04-20.68,8.87-8.54,3.49-17.18,4.22-25.64-.2-1.41-.74-2.34-2.42-3.49-3.66,0,0,0,0,0,0,1.33,0,2.65,0,3.98,0,.33,.33,.67,.66,1,1,2.09,2.92,4.75,3.58,7.96,2.01,.66,0,1.33,0,1.99,0,2.36,2.53,9.96,1.35,12.96-2.01Z"/>
        <path class="cls-1" d="M163.36,156.06c9.76-.05,18.48-2.3,24.32-11.13,.51-.77,2.36-.63,3.59-.92-1.59,6.18-6.61,9.32-11.68,11.51-4.7,2.03-10.12,2.39-15.22,3.49-.34-.98-.67-1.96-1.01-2.95Z"/>
        <path class="cls-29" d="M27.9,34c0,1.33,0,2.67,0,4,0-1.33,0-2.67,0-4Z"/>
        <path class="cls-16" d="M102.6,166c-5.05-4.34-9.74-9.24-15.24-12.89-6.65-4.42-13.96-7.75-22.5-6.21-2.56,.46-5.27,.11-7.91,.14-.04-1.01-.09-2.01-.13-3.02,8.47,.67,18.01-.89,25.14,2.56,8.91,4.32,15.84,12.76,23.63,19.42-1,0-1.99,0-2.99,0Z"/>
        <path class="cls-16" d="M40.78,144.94c.11-2.2,.65-3.28,3.33-2.41,2.71,.88,5.67,1.01,8.52,1.47,.74,.43,1.48,.86,2.22,1.29,.26,.58,.51,1.16,.77,1.74-4.94-.7-9.89-1.39-14.83-2.09Z"/>
        <path class="cls-8" d="M102.6,166c1,0,1.99,0,2.99,0,0,0,0,0,0,0,.33,.67,.66,1.34,.99,2-1.33,0-2.65,0-3.98,0,0-.67,0-1.33,0-2Z"/>
        <path class="cls-28" d="M55.61,147.03c-.26-.58-.51-1.16-.77-1.74,.39-.43,.78-.86,1.17-1.29,0,0,.41,0,.41,0l.41,.02c.04,1.01,.08,2.01,.13,3.02-.17,.41-.33,.81-.5,1.22-.28-.41-.56-.81-.84-1.22Z"/>
        <path class="cls-13" d="M115.09,100.28c7.35-8.94,14.49-17.62,21.81-26.51,2.3,1.78,4.46,3.23,6.32,5.01,.53,.51,.59,2.34,.11,2.93-8.54,10.51-17.21,20.92-26.18,31.75-6.07-4.37-11.85-8.54-17.92-12.92,1.78-2.63,3.38-5,5.28-7.81,3.48,2.48,6.77,4.82,10.59,7.54Z"/>
        <path class="cls-1" d="M139.46,42c6.97,0,13.95,0,20.92,0-6.97,0-13.95,0-20.92,0Z"/>
        <path class="cls-1" d="M162.37,42c1.33,0,2.66,0,3.99,0-1.33,0-2.66,0-3.99,0Z"/>
        <path class="cls-27" d="M110.55,162c1.31,.28,2.63,.57,3.94,.85,4.05,.13,8.15,.68,12.14,.21,2.09-.25,4.75-1.71,3.88-5.06l.15-.28s.31,.04,.31,.04c3.49-1.26,6.99-2.52,10.48-3.77,0,0,.01,.01,.01,.01-.33,1.33-.67,2.66-1,4-.33,.33-.67,.67-1,1-2.66,1.67-5.31,3.33-7.97,5h0c-3.32,1.33-6.64,2.66-9.96,3.99-1.66,0-3.32,0-4.98,0-2.43-1.34-5.1-2.38-7.24-4.09-3.42-2.73-6.49-5.91-9.7-8.9,3.65,2.33,7.29,4.66,10.94,6.99Z"/>
        <path class="cls-1" d="M140.46,158c.33-1.33,.67-2.66,1-4,3.98,0,7.97,0,11.95,.01-4.32,1.33-8.63,2.66-12.95,3.98Z"/>
        <path class="cls-1" d="M121.53,167.99c3.32-1.33,6.64-2.66,9.96-3.99-1.28,1.13-2.54,2.28-3.83,3.4-1.03,.89-2.1,1.73-3.15,2.59-.66,0-1.32,0-1.98,0-.33-.67-.67-1.33-1-2Z"/>
        <path class="cls-8" d="M122.53,170c.66,0,1.32,0,1.98,0,2-.33,3.99-.66,5.99-.99-3,3.36-10.6,4.54-12.96,2.01,1.66-.34,3.33-.68,4.99-1.02Z"/>
        <path class="cls-1" d="M131.49,164c2.66-1.67,5.31-3.33,7.97-5-1.97,2.77-3.93,5.56-7.97,5Z"/>
        <path class="cls-14" d="M132.67,147.01c.57-.74,1.15-1.48,1.72-2.22-.57,.74-1.15,1.48-1.72,2.22Z"/>
        <path class="cls-27" d="M37.9,32.1c1.99-7.6,10.92-13.74,20.4-14.11,11.02-.43,20.74,3.23,29.18,10.03,8.15,6.56,17.04,11.62,26.75,15.35-2.15,1.73-4.13,3.83-6.54,5.05-1.35,.68-3.42-.09-5.17-.2-.43-1.03-.58-2.4-1.34-3.03-7.68-6.39-15.15-13.1-23.29-18.83-7.73-5.44-16.83-4.69-25.62-2.87-1.64,.34-2.89,2.56-4.32,3.91-3.35,1.57-6.7,3.13-10.06,4.7Z"/>
        <path class="cls-19" d="M46.73,35.68c1.83-.36,3.66-.72,5.69-1.12-3.15,16.34-3.39,32.08,.27,47.71,2.18,9.31,2.42,9.25-6.77,12.06,.27-19.55,.53-39.1,.8-58.65Z"/>
        <path class="cls-23" d="M54.93,135.02c0-1,0-2-.01-3,5.25,.33,10.5,.82,15.76,.87,1.36,.01,2.74-1.35,4.1-2.08,11.47,2.36,21.78,7.56,31.15,14.27,2.07,1.48,1.59,6.55,2.29,9.97-2.23-1.74-4.77-3.2-6.64-5.27-4.57-5.06-9.12-10.34-16.08-11.62-6.9-1.26-13.99-1.48-20.99-2.16-3.19-.31-6.39-.65-9.58-.97Z"/>
        <path class="cls-25" d="M47.96,27.4c1.43-1.35,2.68-3.57,4.32-3.91,8.79-1.82,17.88-2.58,25.62,2.87,8.14,5.73,15.61,12.44,23.29,18.83,.76,.63,.91,2,1.34,3.03-2.98,.03-5.97,.05-8.95,.08-.73-1.94-.94-4.44-2.29-5.73-6.41-6.15-11.91-13.73-21.33-15.66-3-.62-6.26-3.81-9.23,.19-4.26,.1-8.51,.21-12.77,.31Z"/>
        <path class="cls-11" d="M46.73,35.68c-.27,19.55-.53,39.1-.8,58.65-1.34,1.69-2.58,3.48-4.07,5.02-.76,.78-1.99,1.1-3.01,1.62,.68-2.29,1.63-4.54,1.98-6.87,1.1-7.54,2.39-15.08,2.77-22.67,.23-4.43-1.12-8.95-1.76-13.42,0-1,0-2,0-3.01,.3-.89,.89-1.79,.86-2.67-.19-4.46-.55-8.91-.85-13.37,0-.59,0-1.17,0-1.76,1.63-.51,3.26-1.02,4.89-1.53Z"/>
        <path class="cls-21" d="M54.93,135.02c3.19,.32,6.38,.66,9.58,.97,7,.68,14.09,.9,20.99,2.16,6.96,1.27,11.51,6.55,16.08,11.62,1.87,2.07,4.41,3.53,6.64,5.27,.78,2.32,1.56,4.64,2.33,6.97-3.65-2.33-7.29-4.66-10.94-6.99-.33-.33-.66-.67-.99-1-3.03-6.33-8.52-9.31-14.93-11.01-2.03-.99-3.99-2.59-6.11-2.86-7.52-.95-15.09-1.45-22.64-2.12,0-1,0-1.99,0-2.99Z"/>
        <path class="cls-1" d="M98.62,154c.33,.33,.66,.67,.99,1,3.22,2.99,6.28,6.17,9.7,8.9,2.14,1.71,4.81,2.75,7.24,4.09-.33,.67-.67,1.34-1,2.01-.66,0-1.32,0-1.98,0-2.66-1.33-5.32-2.66-7.98-3.99,0,0,0,0,0,0-7.79-6.66-14.72-15.1-23.63-19.42-7.13-3.45-16.67-1.89-25.14-2.56,0,0-.41-.02-.41-.02,0,0-.41,0-.41,0-.06-.67-.12-1.33-.18-2,9.03-1.78,17.97-1.02,26.86,1l15.94,11Z"/>
        <path class="cls-27" d="M41.83,55c0,1,0,2,0,3.01-.33,1.56-.92,3.11-.94,4.67-.11,6.47-.01,12.94-.07,19.42-.01,1.46-.24,2.94-.54,4.38-1.08,5.24-2.23,10.47-3.36,15.71-1.34,.98-2.67,1.96-4.01,2.94,1.42-5.87,2.73-11.76,4.27-17.6,2.86-10.85,1.42-21.74,.48-32.64-.34-3.96-.54-7.92-.8-11.88,.66,2.06,1.72,4.09,1.89,6.2,.2,2.53,.03,4.92,3.07,5.81Z"/>
        <path class="cls-25" d="M37.4,128.7c-1.18-4.83-2.4-9.64-3.5-14.49-.47-2.05-.68-4.15-1.01-6.23,0-.35,0-.71,0-1.06,0,0-.07,.11-.07,.11,2.67-.6,5.33-1.19,7.99-1.79,.65,3.59,1.3,7.17,1.95,10.76-1.79,4.23-3.57,8.47-5.36,12.7Z"/>
        <path class="cls-4" d="M60.73,27.09c2.97-4,6.23-.81,9.23-.19,9.42,1.93,14.92,9.51,21.33,15.66,1.35,1.29,1.55,3.79,2.29,5.73-3.93-3.5-7.91-6.95-11.78-10.52-6.03-5.57-13.23-8.75-21.07-10.69Z"/>
        <path class="cls-20" d="M36.93,102.17c1.13-5.23,2.28-10.46,3.36-15.71,.3-1.44,.53-2.91,.54-4.38,.06-6.47-.04-12.95,.07-19.42,.03-1.56,.61-3.11,.94-4.67,.64,4.48,1.98,8.99,1.76,13.42-.39,7.59-1.67,15.13-2.77,22.67-.34,2.34-1.3,4.58-1.98,6.87-.64,.4-1.28,.8-1.92,1.2Z"/>
        <path class="cls-18" d="M42.76,116c-.65-3.59-1.3-7.17-1.95-10.76,3.66-.57,7.32-1.13,10.98-1.7,.16,.36,.31,.72,.47,1.08-3.17,3.79-6.33,7.58-9.5,11.37Z"/>
        <path class="cls-14" d="M74.78,130.79c-1.37,.73-2.74,2.1-4.1,2.08-5.25-.05-10.5-.54-15.76-.87,0-1.33,0-2.67,0-4,3.99,.5,8.17,3.81,11.83-.79,2.68,1.19,5.35,2.39,8.03,3.58Z"/>
        <path class="cls-28" d="M82.68,143c-8.89-2.03-17.83-2.78-26.86-1-.3-1.33-.59-2.66-.89-3.99,7.55,.67,15.13,1.17,22.64,2.12,2.12,.27,4.08,1.87,6.11,2.86-.34,0-.67,0-1.01,.01Z"/>
        <path class="cls-19" d="M66.75,127.22c-3.65,4.61-7.83,1.3-11.83,.79,.47-5.76,2.26-6.89,6.68-4.18,1.75,1.07,3.43,2.25,5.15,3.39Z"/>
        <path class="cls-21" d="M51.41,140.78c-3.49-.93-6.98-1.86-10.47-2.8,.36-1.66,.72-3.33,1.09-4.99,2.65,.97,5.3,1.95,7.96,2.92l1.42,4.87Z"/>
        <path class="cls-21" d="M130.51,158c.87,3.35-1.79,4.81-3.88,5.06-3.98,.47-8.08-.08-12.14-.21,.98-.81,1.95-1.62,2.93-2.43,3.72,3.02,6.21,1.47,8.12-2.21,1.66-.07,3.32-.13,4.97-.2Z"/>
        <path class="cls-23" d="M49.99,135.91c-2.65-.97-5.3-1.95-7.96-2.92,.64-1.99,1.29-3.99,1.93-5.98,1.9,1,3.8,2,5.7,3.01l.32,5.9Z"/>
        <path class="cls-4" d="M49.66,130.02c-1.9-1-3.8-2-5.7-3.01,1.46-2.4,2.91-4.79,4.37-7.19,.45,.04,.89,.09,1.34,.13v10.06Z"/>
        <path class="cls-4" d="M125.54,158.21c-1.91,3.69-4.39,5.23-8.12,2.21,2.71-.74,5.41-1.48,8.12-2.21Z"/>
        <path class="cls-20" d="M41.83,55c-3.04-.89-2.87-3.28-3.07-5.81-.17-2.1-1.22-4.13-1.89-6.2-.03-.95-.05-1.89-.08-2.83,1.68-.4,3.36-.79,5.05-1.19,.3,4.46,.66,8.91,.85,13.37,.04,.87-.56,1.78-.86,2.67Z"/>
        <path class="cls-5" d="M32.88,106.92c0,.35,0,.71,0,1.06-.25-.29-.49-.57-.74-.86,.24-.07,.49-.14,.73-.2Z"/>
        <path class="cls-16" d="M115.55,170c.33-.67,.67-1.34,1-2.01,1.66,0,3.32,0,4.98,0,.33,.67,.67,1.33,1,2-1.66,.34-3.33,.68-4.99,1.02-.66,0-1.33,0-1.99,0,0-.34,0-.67,0-1.01Z"/>
        <path class="cls-8" d="M115.55,170c0,.34,0,.67,0,1.01-3.22,1.57-5.87,.91-7.96-2.01,1.99,.33,3.99,.66,5.98,.99,.66,0,1.32,0,1.98,0Z"/>
        <path class="cls-16" d="M113.57,169.99c-1.99-.33-3.99-.66-5.98-.99-.33-.33-.67-.66-1-1-.33-.67-.66-1.34-.99-2,2.66,1.33,5.32,2.66,7.98,3.99Z"/>
        <path class="cls-27" d="M82.68,143c.34,0,.67,0,1.01-.01,6.42,1.7,11.9,4.68,14.93,11.01-5.31-3.67-10.63-7.33-15.94-11Z"/>
      </g>
    </g>
  </g>
</svg>