<?xml version="1.0" encoding="UTF-8"?>
<svg id="Layer_2" data-name="Layer 2" xmlns="http://www.w3.org/2000/svg" viewBox="0 0 4001.29 994.8">
  <defs>
    <style>
      .cls-1 {
        fill: #d0cfce;
      }

      .cls-2 {
        fill: #717171;
      }

      .cls-3 {
        fill: #63d0fe;
      }

      .cls-4 {
        fill: #000101;
      }

      .cls-5 {
        fill: #fbfafa;
      }

      .cls-6 {
        fill: #fdfeff;
      }

      .cls-7 {
        fill: #f6f5f5;
      }

      .cls-8 {
        fill: #faf9f9;
      }
    </style>
  </defs>
  <g id="Layer_1-2" data-name="Layer 1">
    <g>
      <path class="cls-5" d="M1551.13,346.81c.25-3.94,.72-7.88,.73-11.83,.05-43.41,.01-86.82,.05-130.23,0-3.91-.64-7.92,.97-11.89,4.5-.34,8.79-.67,13.08-.99,10.48,.28,20.97,.56,31.84,.85,2.31,3.67,1.31,7.75,1.31,11.56,.08,49.8,.05,99.6,.07,149.4,0,3.54-.26,7.11,.2,10.1,2.37,1.67,3.32,.28,4.28-.63,2.89-2.76,5.72-5.59,8.54-8.42,51.42-51.4,102.84-102.79,154.22-154.24,2.56-2.57,4.72-5.54,6.6-7.77h65.49c1.33,3.44-1.73,4.51-3.35,6.08-26.83,26.12-53.73,52.16-80.62,78.22-18.01,17.45-36.01,34.92-54.09,52.3-2.6,2.5-5.61,4.59-8.76,7.13,13.52,18.93,26.16,36.65,38.83,54.34,12.69,17.73,25.41,35.43,38.1,53.16,12.69,17.72,25.39,35.45,38.04,53.2,12.59,17.66,25.47,35.11,37.93,53.28-9.37,1.88-33.53,2.27-62.24,1.1-41.55-59.2-83.04-119.19-124.91-178.88-7.45,4.95-42.92,38.3-58.03,54.5-.55,13.06-.16,26.83-.23,40.59-.07,13.81-.02,27.63-.02,41.44s0,27.55,0,41.76c-7.97,1.74-15.56,.7-23.06,.87-7.61,.18-15.22,.04-22.64,.04-2.64-4.18-1.53-8.28-1.54-12.14-.08-60.34-.05-120.68-.1-181.03,0-3.96-.46-7.93-.7-11.89Z"/>
      <path class="cls-5" d="M3560.65,521.62c-1.23,10.14,.04,19.55-.87,28.77-7.09,1.88-24.87,2.18-38.75,.68-.28-.23-.64-.41-.81-.71-.17-.3-.21-.7-.21-1.06-.08-116.69-.16-233.37-.24-350.06,0-2.13,0-4.27,0-6.26,7.69-1.85,27.61-2.14,42.08-.67,.91,5.88,.32,11.99,.42,18.05,.1,5.81,.02,11.63,.02,17.45v54.53c0,5.82-.01,11.63,0,17.45,.02,6.05-.09,12.11,.1,18.15,4.11,.65,4.92-2.32,6.48-3.98,12.25-12.98,26.69-22.52,44-27.06,49.13-12.88,104.79,6.42,126.5,61.98,5.07,12.97,8.24,26.41,9.5,40.16,2.3,25.06,2.06,50.1-3.78,74.8-4.82,20.39-12.96,39.26-25.56,56.09-23.54,31.42-55.67,42.89-93.78,39.73-23.26-1.93-42.23-12.4-56.99-30.5-1.83-2.24-3.79-4.37-5.73-6.52-.22-.24-.66-.29-2.39-1.02Zm-1.25-102.08c.92,10.49,1.42,21.03,2.86,31.45,1.9,13.74,5.77,26.96,12.94,39.03,8.56,14.4,20.82,24.08,36.97,28.58,9.9,2.76,20.08,3.41,30.27,2.33,19.67-2.08,34.93-11.46,45.32-28.42,5.15-8.41,9.01-17.39,11.56-26.92,6.56-24.57,7.91-49.47,3.81-74.53-2.54-15.54-7.76-30.21-16.89-43.27-8-11.44-18.52-19.34-32.11-22.89-39.02-10.19-77.14,12.68-87.86,47.29-4.78,15.43-6.44,31.25-6.87,47.36Z"/>
      <path class="cls-8" d="M3286.18,369.96c-13.09,.07-26.06,.3-38.44-.18-2.65-2.16-2.05-4.46-1.85-6.51,.94-9.77,2.47-19.41,5.9-28.71,5.36-14.55,14.52-25.76,27.9-33.66,16.58-9.79,34.56-15.21,53.59-16.78,21.51-1.78,42.83-.18,63.66,5.97,8.39,2.48,16.39,5.85,23.95,10.28,18.76,11,28.24,27.62,29.71,49.04,.3,4.34,.19,8.72,.2,13.08,.01,46.15,0,92.3,.03,138.46,0,3.62-.1,7.32,.55,10.86,1.2,6.54,4.51,9.3,11.15,9.82,2.89,.23,5.8-.01,8.71-.02,2.51-.01,5.03,0,7.52,0,1.61,7.79,1.71,21.79,.21,31.53-12.45,4.2-25.27,5.58-38.44,3.47-13.39-2.14-22.47-9.63-27.19-22.26-1.77-4.74-2.97-9.69-4.67-15.31-1.87,1.67-3.44,2.96-4.87,4.38-27.38,27.15-60.33,39.68-98.78,36.82-19.83-1.48-37.28-9-51.4-23.42-13.58-13.86-20.59-30.53-21.26-49.87-.37-10.59,.54-21,3.83-31.19,4.02-12.47,10.99-22.8,21.12-31.07,14.14-11.55,30.46-18.33,48.31-21.19,16.13-2.59,32.38-4.39,48.58-6.53,10.8-1.42,21.62-2.7,32.41-4.25,8.36-1.2,15.08-4.94,18.77-13.05,8.71-19.16,0-43.05-19.03-51.86-6.98-3.23-14.41-4.86-22.01-5.89-12.7-1.72-25.33-1.83-37.94,.79-20.06,4.16-33.19,15.49-37.53,36.02-.75,3.52-1.66,7.01-2.67,11.24Zm120.28,50.16c-2.11,.56-3.53,.71-4.74,1.28-11.93,5.69-24.71,8.28-37.63,10.24-11.47,1.74-23.02,2.99-34.52,4.56-9.01,1.23-17.85,3.28-26.22,6.89-12.81,5.53-21.55,14.79-24.15,28.74-3.75,20.11,2.27,36.69,22.98,46.57,6.94,3.31,14.4,4.87,22.14,4.91,17.04,.08,33.01-4.13,48.06-11.97,22.7-11.82,34.15-30.61,34.48-56.16,.12-9.8,.05-19.6,.02-29.4,0-1.67-.24-3.33-.42-5.66Z"/>
      <path class="cls-8" d="M2273,414.39c.23,24.8-3,47.3-10.96,69.04-3.89,10.61-8.96,20.59-15.09,30.08-14.25,22.06-34.14,36.28-59.49,42.87-22.11,5.74-44.47,6.61-66.93,2.48-32.42-5.97-56.13-24.24-72.68-52.3-9.17-15.54-14.29-32.54-16.81-50.26-3.82-26.88-2.69-53.61,3.86-80.02,5.24-21.12,14.6-40.19,29.15-56.52,19.23-21.58,43.4-33.39,72.06-36.48,17.16-1.86,34.22-1.41,50.76,3.48,42.79,12.66,70.48,40.33,81.38,84,3.71,14.87,5.15,30.03,4.75,43.64Zm-45.28,1.55c-1.02-10.1-1.69-20.24-3.16-30.27-1.7-11.56-5.38-22.58-11.34-32.71-8.47-14.39-20.64-24.13-36.76-28.83-12.04-3.51-24.31-4.32-36.67-2.75-22.97,2.91-39.88,14.73-50.06,35.58-3.49,7.14-6.63,14.56-8.92,22.15-7.56,25.13-8.5,50.76-3.87,76.51,2.59,14.39,7.69,27.96,15.91,40.2,7.76,11.57,18.16,19.63,31.54,23.73,17.87,5.47,35.75,5.46,53.57-.2,13.79-4.38,24.07-13.15,31.15-25.68,1.78-3.15,3.28-6.47,4.72-9.8,9.35-21.65,13.55-44.32,13.9-67.93Z"/>
      <path class="cls-5" d="M2369.39,551.54h-42.72c-2.36-3.93-1.26-8.02-1.27-11.87-.08-68.33-.06-136.65-.06-204.98,0-11.99,0-23.99,0-35.98v-7.23c8.4-1.86,26.31-2.19,40.75-.9,1.92,3.31,.91,7,1.05,10.53,.16,3.99-.06,8,.07,11.99,.11,3.42-.68,7.01,.7,10.07,3.08,.57,3.71-1.54,4.94-2.65,1.34-1.21,2.46-2.67,3.73-3.97,12.08-12.44,25.87-22.21,42.6-27.42,22.51-7.02,45.19-7.1,67.65-.49,22.83,6.72,38.07,21.84,45.6,44.54,3.8,11.47,5.46,23.32,6.18,35.31,.35,5.8,.34,11.62,.34,17.44,.03,51.61,.02,103.22,.02,154.83,0,3.23,0,6.46,0,9.54-7.4,1.91-30.31,2.3-43.65,.87-1.71-3.8-.9-7.85-.9-11.79-.06-49.79-.02-99.58-.07-149.37-.01-10.55-.35-21.13-3.49-31.29-1.59-5.15-3.7-10.24-6.31-14.96-5.39-9.75-14.01-16.04-24.72-18.19-28.38-5.7-56.37,.67-75.66,26.5-7.6,10.17-12.2,21.46-13.18,34.06-.81,10.5-1.49,21.04-1.53,31.56-.17,40.7-.07,81.41-.07,122.12,0,3.6,0,7.19,0,11.75Z"/>
      <path class="cls-5" d="M3996.18,291.12c.09,2.69,.25,5.51,.26,8.34,.02,7.99,.08,15.99-.14,23.98-.04,1.67-.93,3.48-1.9,4.91-1.62,2.4-3.61,4.55-5.46,6.79-46.32,56-92.65,112-138.96,168.01-2.04,2.47-3.92,5.06-5.74,7.42,.37,.76,.46,1.15,.71,1.39,.22,.22,.6,.38,.91,.38,51.22,.02,102.44,.02,154.24,.02,2.03,6.8,.8,13.29,1.02,19.64,.21,6.14,.05,12.28,.05,19.11-2.24,.3-3.89,.73-5.55,.73-69.06,.03-138.11,.03-207.17,.02-1.74,0-3.48-.19-5.9-.33-.87-6.89-.3-13.36-.45-19.79-.06-2.54,.21-5.11-.05-7.63-.54-5.08,1.46-8.9,4.67-12.74,21.2-25.38,42.21-50.91,63.28-76.4,26.86-32.49,53.72-64.97,80.53-97.5,1.72-2.08,4.24-3.82,4.61-7.79-5.34-.65-10.32-.28-15.26-.34-5.45-.07-10.9-.02-16.35-.02h-77.42c-5.45,0-10.9,.01-16.36,0-5.02-.02-10.04-.07-14.89-.11-1.85-8.59-1.97-28.42-.38-38.19,8.93-1.46,191.89-1.47,201.71,.09Z"/>
      <path class="cls-8" d="M2879.48,459.53h41.23c0,2.29,.27,4.34-.04,6.31-2.15,13.71-6.08,26.88-12.16,39.39-11.05,22.74-28.83,38.05-52.37,46.57-23.44,8.49-47.54,9.74-71.93,4.85-21.05-4.22-38.45-14.86-52.68-30.77-16.15-18.05-26.39-39.21-30.67-62.87-6.05-33.41-4.34-66.6,6.01-99.09,4.78-15.02,12.14-28.74,22.26-40.91,23.98-28.86,55.02-41.87,92.2-40.63,14.19,.47,28.16,2.52,41.65,7.47,25.13,9.22,42.44,26.04,50.95,51.52,2.06,6.18,3.62,12.55,5.05,18.91,1.18,5.28,1.83,10.68,2.7,15.99-7.62,1.95-23.73,2.3-42.07,.97-.84-2.8-1.83-5.81-2.65-8.88-2.26-8.49-5.74-16.41-10.56-23.78-6.87-10.52-16.25-17.39-28.52-20.36-12.57-3.04-25.26-3.43-37.83-.74-15.26,3.27-27.06,12.03-35.81,24.87-6.83,10.01-11.32,21.07-14.19,32.81-6.65,27.23-7.79,54.6-1.71,82.06,2.44,11.05,6.63,21.47,12.59,31.15,8.23,13.36,19.79,21.92,35.17,25.42,10.46,2.38,20.97,2.5,31.4,.67,14.59-2.55,26.23-10.13,34.99-22.17,6.72-9.23,11.21-19.46,14.36-30.35,.8-2.75,1.7-5.47,2.64-8.44Z"/>
      <path class="cls-7" d="M2971.63,551.19c0-118.41,0-236.05,.03-353.7,0-1.38,.48-2.76,.71-4,8.74-1.42,36.51-1.54,47.31-.21,1.62,3.57,.85,7.6,.86,11.46,.06,50.86,.04,101.72,.04,152.58v150.62c4.32,1.55,8.31,.88,12.16,.88,52.31,.06,104.63,.03,156.94,.05,3.91,0,7.82,.16,11.59,.25,1.28,9.04,1.39,31.86,.3,41.84-7.8,1.17-215.66,1.49-229.94,.24Z"/>
      <path class="cls-8" d="M1923.22,290.89v38.47c3.07,1.16,3.39-1.27,4.2-2.49,6.91-10.37,15.36-19.38,24.88-27.28,15.32-12.73,32.9-17.99,52.77-14.52,1.04,.18,2.03,.67,3.7,1.23,0,14.63,.03,29.38-.03,43.53-3.36,2.12-5.88,1.1-8.32,1-9.47-.38-18.83,0-28.07,2.55-11.94,3.3-21.83,9.65-29.63,19.21-10.66,13.07-16.74,27.93-17.11,44.9-.18,8.35-.1,16.7-.1,25.06,0,39.22,0,78.44-.02,117.67,0,3.54-.26,7.09-.42,11.32-14.65,.61-28.65,.23-42.96,.3-.28-2.85-.64-4.98-.68-7.11-1.18-61.88-.58-242.56,.81-253.7,7.85-1.38,29.27-1.54,40.99-.15Z"/>
      <path class="cls-5" d="M2604.13,291.99c12.45-1.36,35.15-1.22,44.2,.21,.15,2.3,.42,4.75,.45,7.2,1.05,94.05,.45,242.58-1.06,251.94-1.3,.17-2.69,.5-4.08,.51-12.68,.04-25.35,.02-38.12,.02-2.38-4.13-1.32-8.21-1.33-12.04-.08-69.4-.06-138.81-.06-208.21v-39.62Z"/>
      <path class="cls-8" d="M2648.53,192.41c.53,16.95,.17,32.76,.29,48.39-7.93,1.91-29.56,2.25-43.42,.85-1.65-7.83-1.81-38.18-.13-48.92,13.84-.72,27.84-.19,43.27-.32Z"/>
      <path class="cls-1" d="M1837.09,660.15c-.03-11.11-.37-22.31,.33-33.52,.05-.77,1.32-1.99,2.08-2.03,.74-.04,2.06,1.05,2.23,1.83,.52,2.44,.62,4.97,.95,8.07,2.55-.23,4.92-.66,7.27-.61,5.82,.12,9.48,3.16,10.66,8.92,.51,2.47,.47,5.05,.74,8.22,1.99-.23,3.94-.45,6.64-.76,.68,1.29,1.25,3,2.33,4.26,3.06,3.58,7.1,4.21,10.62,1.74,1.83-1.28,3.13-3.06,2.81-5.51-.3-2.3-1.44-3.97-3.65-4.93-2.12-.92-5.34,.23-6.33-3.74,1.83-.75,3.75-1.46,5.61-2.3,2.24-1.01,3.2-2.82,2.91-5.26-.32-2.62-2.33-4.19-5.36-4.34-3.29-.16-5.56,1.2-6.76,4.31-.95,2.46-2.42,3.55-5.01,1.63-.28-4.42,1.72-7.82,5.59-9.64,3.72-1.74,7.85-1.54,11.69-.04,3.35,1.31,5.29,4.1,5.14,7.63-.13,2.81-1.2,5.59-1.9,8.57,4.79,7.95,4.32,13.95-1.57,17.63-7.51,4.7-14.82,2.18-21.39-7.43-2.69,.16-3.05,2.67-4.19,4.32-2.8,4.05-6.56,5.46-11.32,4.63-3.11-.55-6.24-1.03-10.11-1.66Zm19.22-11.8c-.36-2.31-.38-3.8-.84-5.14-.86-2.53-2.56-4.34-5.32-4.83-2.83-.5-5.86,1.16-7.11,3.79-2.02,4.25-1.67,8.48,.48,12.49,2.2,4.1,8.45,4.14,10.73,.01,1.17-2.12,1.55-4.68,2.06-6.32Z"/>
      <path class="cls-1" d="M1775.28,660.49c-3.42,1.2-5.65,.97-6.36-1.64-2.86-10.49-5.55-21.03-8.16-31.58-.18-.74,.82-2.54,1.25-2.53,1.28,.02,3.35,.37,3.68,1.18,1.22,2.99,1.93,6.19,2.73,9.34,1.06,4.2,2.01,8.43,3.34,14.02,1.56-2.43,2.75-3.65,3.2-5.1,1.83-5.88,3.31-11.88,5.24-17.72,.32-.97,2.15-1.76,3.4-2,.77-.15,2.07,.68,2.61,1.43,.82,1.15,1.34,2.58,1.73,3.97,1.18,4.19,2.14,8.44,3.39,12.61,.57,1.92,1.6,3.71,2.74,6.27,3.72-5.41,3.25-11.15,5.05-16.17,.85-2.36,1.33-4.91,2.5-7.09,.44-.82,2.33-.87,3.46-1.24,.46,.87,.75,1.18,.78,1.51,.08,1.07,.29,2.2,.03,3.2-2.75,10.51-5.59,20.99-8.35,31.28-5.8,.94-5.9,.97-6.92-2.55-1.62-5.57-3.02-11.2-4.69-16.76-.48-1.59-1.54-3.01-3-5.76-1.69,5.49-2.99,9.6-4.23,13.72-1.15,3.81-2.24,7.64-3.4,11.61Z"/>
      <path class="cls-1" d="M2288.25,650.54c-7.61,11.01-11.44,13.3-18.41,11.21-5.75-1.72-8.56-6.15-8.55-13.46,0-7.06,3.03-12.19,8.2-13.89,7.18-2.37,12.06,.33,18.81,10.79,1.77-2.81,3.15-5.64,5.12-7.98,4.87-5.81,17.73-4.28,18.57,3.28,.1,.9-.4,2-.94,2.78-.21,.3-1.33,.02-2.02-.07-.34-.05-.7-.23-.96-.46-.26-.23-.43-.58-.61-.89-1.64-2.9-4.15-3.95-7.3-3.13-3.79,.99-4.69,4.21-5.13,7.49-.24,1.76-.16,3.64,.2,5.38,.52,2.54,1.72,4.78,4.45,5.65,2.76,.87,4.9-.18,6.72-2.24,.92-1.04,1.82-2.13,2.91-2.96,.39-.3,1.45-.12,1.93,.23,.48,.35,.95,1.25,.84,1.78-.81,3.85-3.13,6.41-6.99,7.42-4.49,1.17-8.8,.8-11.94-2.89-1.97-2.32-3.22-5.26-4.87-8.05Zm-6.79-2.75c-.4-1.91-.59-3.72-1.17-5.38-.92-2.62-3.04-3.94-5.71-4.32-2.83-.4-5.64,1.28-6.99,3.98-1.89,3.79-1.75,7.69-.42,11.54,.89,2.58,4.2,4.67,6.83,4.45,2.69-.23,4.85-1.52,5.8-4.14,.73-2,1.13-4.12,1.66-6.12Z"/>
      <path class="cls-1" d="M2656.93,660.22v-25.12c3.25-.83,6.74,.73,10.13-.62,1.99-.8,4.98,.09,7.21,.99,1.9,.77,3.18,.72,4.94-.18,1.55-.79,3.43-1.15,5.19-1.26,4.29-.26,7.45,1.62,7.88,5.77,.66,6.42,.46,12.93,.41,19.4,0,.65-1.46,1.79-2.25,1.8-.78,.01-2.1-1.02-2.26-1.78-.44-2.09-.46-4.28-.53-6.43-.1-3.26,0-6.52-.16-9.77-.09-1.84-.69-3.55-2.85-4.07-2.65-.64-5.43,.53-6.19,2.97-.64,2.04-1.02,4.21-1.15,6.34-.2,3.25,.1,6.54-.22,9.76-.11,1.1-1.48,2.08-2.27,3.11-.88-.94-2.36-1.78-2.53-2.83-.4-2.47-.18-5.05-.21-7.58-.03-2.53,0-5.07-.12-7.6-.09-1.86-.61-3.64-2.72-4.17-2.29-.58-4.59-.13-5.64,2.01-1.07,2.19-1.73,4.72-1.96,7.15-.35,3.59,.09,7.26-.3,10.84-.24,2.21-2.03,2.63-4.39,1.27Z"/>
      <path class="cls-1" d="M2955.32,649.31c1.4-4.44,2.68-8.94,4.33-13.29,.31-.82,2.11-1.09,4.37-2.15-1.47,9.77-4.33,17.81-7.1,25.84-.31,.91-2.91,1.03-4.84,1.63-1.53-4.67-2.85-8.7-4.48-13.69-1.4,1.33-2.68,2.01-3.07,3.02-1.03,2.69-1.45,5.63-2.59,8.26-.44,1.01-2.18,2.08-3.27,2.03-1.06-.05-2.63-1.33-2.96-2.39-2.39-7.55-4.53-15.19-6.69-22.61,2.6-2.17,4.43-1.78,5.39,.86,.86,2.36,1.18,4.92,1.95,7.32,.62,1.93,1.56,3.77,3.01,7.18,1.53-5.76,2.49-9.96,3.84-14.03,.38-1.14,1.77-2.39,2.94-2.72,2.04-.57,3.37,.89,3.93,2.79,1.22,4.1,2.33,8.24,3.48,12.36,.58-.14,1.16-.27,1.74-.41Z"/>
      <path class="cls-1" d="M2904.14,649.11c1.29-4.32,2.45-8.7,3.99-12.93,.31-.85,2.1-1.17,4.4-2.34-.61,3.7-.78,6.14-1.43,8.45-1.54,5.55-3.18,11.09-5.07,16.53-.36,1.03-2.07,2.23-3.12,2.19-1.08-.04-2.67-1.29-3.06-2.36-1.45-4.04-2.49-8.23-4.09-13.77-1.4,2.87-2.38,4.49-2.99,6.23-.7,2.04-1,4.21-1.62,6.28-.5,1.68-.89,3.63-3.21,3.77-2.83,.16-3.61-1.99-4.2-4.09-1.97-6.92-3.85-13.86-5.71-20.58,2.04-2.75,4.07-2.47,5.09,.03,1.42,3.51,1.42,7.59,4.53,11.5,3.04-3.61,3.1-7.63,4.4-11.08,.99-2.61,2.91-2.81,5.81-1.84,1.35,4.34,2.82,9.05,4.29,13.75l1.97,.24Z"/>
      <path class="cls-1" d="M3379.4,652.09c1.91-6.66,3.12-11.01,4.41-15.33,.38-1.27,1.09-1.45,4.84-1.33-1.28,8.28-4.28,15.99-6.65,23.85-.27,.89-2.24,1.59-3.5,1.75-.71,.09-1.99-.96-2.31-1.77-.92-2.35-1.44-4.86-2.21-7.27-.64-2.01-1.42-3.97-2.35-6.54-3.18,4.16-3.21,8.52-4.4,12.49-.7,2.34-2.07,3.82-5.74,2.8-3.29-7.36-5.15-15.76-7.01-24.15-.1-.45,1.23-1.43,2.06-1.78,.48-.2,1.66,.18,1.88,.63,.8,1.59,1.39,3.3,1.93,5.01,.83,2.63,1.55,5.3,2.35,8.07,3.41-.85,2.96-3.43,3.65-5.15,.8-2,.96-4.25,1.67-6.29,.87-2.49,2.71-3.2,5.96-1.79,1.44,4.48,3.06,9.49,5.41,16.8Z"/>
      <path class="cls-1" d="M2494.66,634.23c.42-3.37,.8-6.51,1.34-10.86,1.79,1.49,3.43,2.19,3.52,3.06,.4,3.56,.39,7.17,.41,10.77,.04,7.57,.01,15.13,.01,22.79-3.34,.59-6.35,1.32-9.41,1.6-2.42,.22-5.14,.5-7.3-.35-5.33-2.1-7.2-6.91-7.36-12.19-.17-5.64,1.24-11.28,6.75-13.71,3.34-1.47,7.64-.78,12.03-1.09Zm-13.6,13.45c.28,1.6,.44,3.03,.78,4.4,.89,3.55,3.75,5.97,6.69,5.77,2.55-.17,5.72-2.47,6.08-5.24,.41-3.12,.38-6.4-.1-9.51-.44-2.87-3.51-4.71-6.46-4.51-2.7,.18-4.81,1.4-5.73,4.06-.57,1.67-.87,3.43-1.27,5.03Z"/>
      <path class="cls-1" d="M3167.79,623.89c2.01,.91,3.16,1.17,3.17,1.47,.44,11.47,.78,22.94,1.13,34.43-3.94,.8-7.3,1.43-10.63,2.17-3.87,.86-7.14-.25-9.84-3.02-5.67-5.82-5.27-17.24,.98-22.45,1.54-1.28,3.83-2.04,5.86-2.25,2.44-.26,4.96,.32,7.87,.57,.46-3.4,.92-6.8,1.47-10.91Zm-.56,24.47c-.24-1.87-.31-3.31-.64-4.69-.7-2.97-3.13-4.93-6.09-5.08-3.04-.15-5.5,1.52-6.54,4.47-1.24,3.51-1.16,7,.16,10.48,.99,2.6,3,4.06,5.63,4.27,2.73,.22,4.89-1.28,5.98-3.7,.85-1.9,1.08-4.07,1.5-5.74Z"/>
      <path class="cls-1" d="M3021.5,661.27c-3.06,0-4.65,.45-5.75-.1-2.01-.99-3.62-1.77-5.95-.52-1.83,.98-4.13,1.42-6.24,1.51-4.05,.17-7.83-3.18-8.42-7.03-.51-3.34,1.72-7.17,5.44-8.42,2.7-.91,5.63-1.12,8.45-1.7,1.88-.39,3.42-1.26,3.24-3.5-.18-2.24-2-2.86-3.78-3.2-3.7-.7-6.11,1.25-8.18,4.06-.26,.35-1.94-.1-2.77-.54-.41-.22-.55-1.28-.49-1.93,.06-.68,.35-1.54,.84-1.93,1.65-1.3,3.3-2.85,5.23-3.5,1.97-.66,4.29-.6,6.42-.44,5.51,.43,7.77,2.69,8.4,8.06,.13,1.07,.08,2.17,.11,3.25,.17,5.21-1.04,10.57,3.46,15.92Zm-10.39-12.6c-2.45,.52-5.24,.85-7.82,1.77-1.05,.37-2.03,1.93-2.34,3.13-.52,2.01,.81,3.38,2.62,4.08,2.69,1.04,5.02-.21,6.97-1.76,2.17-1.73,2.68-4.09,.56-7.23Z"/>
      <path class="cls-1" d="M2134.01,633.83c8.43,.03,10.98,2.66,11.54,10.48,.35,4.91-1.46,10.11,2.05,14.68,.87,1.13-.88,3.1-2.32,2.5-3.82-1.61-7.38-1.77-11.14,.21-1.16,.61-2.83,.48-4.23,.34-3.68-.38-6.8-3.45-7.31-6.97-.43-2.99,1.4-6.59,4.54-7.9,2.29-.95,4.84-1.26,7.27-1.87,1.38-.35,2.89-.5,4.06-1.21,.7-.42,1.06-1.71,1.2-2.66,.08-.56-.41-1.39-.9-1.81-2.15-1.82-4.68-2.07-7.05-.73-1.49,.84-2.48,2.57-3.95,3.49-.61,.38-1.99-.13-2.81-.59-.4-.22-.58-1.34-.44-1.94,.66-2.67,2.5-4.4,5.03-5.21,1.7-.54,3.54-.65,4.43-.8Zm4.64,14.84c-2.43,.5-5.16,.93-7.81,1.64-2.02,.54-2.88,2.36-2.45,4.18,.28,1.18,1.48,2.49,2.61,3.06,2.58,1.3,4.97-.08,6.95-1.59,2.22-1.69,2.74-4.03,.7-7.29Z"/>
      <path class="cls-1" d="M2419.3,661.25c-1.3,.07-2.62,.57-3.34,.12-2.74-1.74-5.29-2.02-8.01-.09-.56,.4-1.37,.48-2.08,.61-5.54,1.01-10.01-1.55-10.93-6.24-.86-4.39,1.7-8.19,6.8-9.59,2.77-.76,5.71-.89,8.5-1.62,.78-.21,1.71-1.49,1.78-2.35,.07-.88-.58-2.16-1.33-2.7-2.65-1.93-5.51-1.62-8.13,.09-1.16,.76-1.9,2.13-3,3.01-.39,.31-1.46,.23-1.91-.09-.5-.36-.9-1.21-.9-1.85-.03-2.94,1.88-4.72,4.31-5.67,3.84-1.5,7.86-1.42,11.74-.07,2.57,.89,4.23,2.83,4.4,5.65,.17,2.89-.07,5.82,.23,8.7,.4,3.8,1.16,7.57,1.88,12.11Zm-8.21-12.84c-3.18,.75-6.07,1.18-8.73,2.2-1.04,.4-2.4,2.37-2.16,3.22,.42,1.5,1.7,3.22,3.08,3.87,2.52,1.19,4.96-.17,6.94-1.79,2.15-1.75,2.91-4.03,.86-7.51Z"/>
      <path class="cls-1" d="M3557.96,660.92c-2.74,2.87-5.47-1.87-8.55-.97-2.73,.8-5.48,1.99-8.25,2.09-3.84,.14-6.96-2.93-7.62-6.51-.68-3.72,1.06-7.26,4.96-8.64,3.36-1.19,7.02-1.53,10.47-2.51,.76-.22,1.62-1.55,1.66-2.4,.04-.89-.64-2.15-1.4-2.67-2.69-1.83-5.55-1.51-8.14,.24-1.15,.77-1.9,2.12-3.01,3-.37,.29-1.44,.11-1.88-.24-.49-.4-.86-1.24-.85-1.88,.02-2.42,1.44-4.35,3.49-5.04,2.68-.9,5.63-1.44,8.45-1.36,6.11,.19,8.35,2.64,8.67,8.72,.11,2.17-.17,4.38,.09,6.53,.47,3.78,1.22,7.52,1.92,11.66Zm-8.2-12.38c-2.8,.62-5.92,1.07-8.84,2.11-1.02,.36-2.34,2.41-2.08,3.26,.45,1.49,1.75,3.2,3.14,3.83,2.53,1.14,4.98-.22,6.93-1.87,2.1-1.77,2.87-4.06,.84-7.33Z"/>
      <path class="cls-1" d="M2528.58,649.45c-6.16,.22-11.88,.43-17.69,.64,1.63,7.49,5.14,9.55,10.26,6.41,1.98-1.21,3.74-2.79,6.27-4.7,.25,2.05,.82,3.29,.42,4-2.77,4.94-7.42,7.26-12.63,6.35-5.12-.89-8.44-3.82-9.84-8.95-.89-3.26-.91-6.41,.03-9.65,1.78-6.14,5.73-9.46,11.61-9.57,6.22-.12,9.86,2.64,11.82,9.04,.32,1.03,.52,2.12,.57,3.2,.03,.68-.32,1.38-.81,3.25Zm-5.38-4.4c-.95-4.85-2.27-6.5-5.18-6.73-3.35-.26-5.08,1.22-7.24,6.41,4.17,1.3,8.25,.91,12.42,.32Z"/>
      <path class="cls-1" d="M3733.64,649.41c-7.14,.26-12.86,.47-18.67,.68,1.6,7.47,5.11,9.55,10.24,6.41,1.98-1.21,3.74-2.8,6.26-4.71,.26,2.04,.83,3.28,.44,3.98-2.76,4.94-7.41,7.27-12.63,6.36-5.12-.89-8.4-3.82-9.86-8.94-1.04-3.67-.84-7.18,.33-10.7,1.82-5.44,5.81-8.43,11.3-8.53,6.24-.12,9.9,2.61,11.8,9.03,.49,1.65,.44,3.46,.78,6.41Zm-18.74-4.55c4.23,1,8.37,1.01,12.48,.02,.48-4.45-2.05-6.1-5.57-6.5-3.41-.38-4.99,1.24-6.91,6.48Z"/>
      <path class="cls-1" d="M2384.03,639.45c-9.01-.65-10.66,.33-11.08,6.24-.31,4.34-.03,8.72-.35,13.06-.18,2.39-1.99,2.63-3.97,1.82-1.02-6.97-1.42-30.85-.36-34.59,.19-.65,1.52-1.17,2.41-1.35,.42-.08,1.39,.73,1.48,1.25,.48,2.82,.77,5.68,1.14,8.7,3.23-.17,6.38-.51,9.52-.44,2.76,.06,4.95,1.59,5.79,4.23,2.26,7.06,1.82,14.27,.65,21.45-.08,.46-1.17,1.18-1.62,1.07-.91-.22-2.3-.82-2.42-1.46-.46-2.46-.53-5-.66-7.52-.2-3.92-.34-7.85-.53-12.47Z"/>
      <path class="cls-1" d="M2223.59,624.51c6.3,.58,2.47,6.37,4.64,8.86,2.18,2.31,4.71,.34,7.08,.47,5.88,.32,9.62,3.1,10.86,8.7,.95,4.28,.91,8.58-1.11,12.7-2.61,5.32-6.25,7.38-12.24,6.57-3.13-.43-6.23-1-9.39-1.52-1.21-8.94-1.17-26.84,.15-35.78Zm18.16,22.72c-.09-.56-.23-2-.59-3.38-.85-3.24-3.11-5.27-5.93-5.48-3.28-.24-6.38,1.87-7.34,5.19-.39,1.37-.58,2.84-.58,4.27-.03,6,3.2,10.17,7.58,9.92,3.86-.22,6.72-4.25,6.86-10.52Z"/>
      <path class="cls-1" d="M2564.65,650.09c2.52,7.98,5.73,9.53,10.94,6.07,1.69-1.12,3.15-2.6,5.12-4.26,.69,1.64,1.62,2.76,1.37,3.41-1.98,5.04-6.28,7-11.24,6.98-5.08-.02-8.93-2.55-10.96-7.47-1.74-4.23-1.81-8.42-.09-12.67,2.38-5.85,6.54-8.57,12.64-8.15,5.95,.41,9.41,3.74,10.56,10.37,.24,1.36,.03,2.79,.03,4.98-6.11,.25-11.76,.48-18.37,.75Zm13.02-5.03c-1.88-5.45-3.58-7.18-6.96-6.68-3.43,.51-6.02,2.14-5.62,6.68h12.57Z"/>
      <path class="cls-1" d="M3440.08,650.62c0,3.46,.36,4.64-.06,5.36-2.77,4.81-7.52,7.03-12.71,6.15-5.29-.9-9.13-4.71-9.83-10.19-.32-2.49-.3-5.1,.08-7.58,.91-5.94,5.27-9.93,10.89-10.36,6.22-.48,10.51,2.14,12.53,8.12,.66,1.94,.45,4.18,.71,7.04-6.49,.38-12.48,.73-18.42,1.08-.58,3.86,1.16,5.93,4.09,7.16,2.66,1.12,4.97,.15,7.02-1.57,1.33-1.11,2.57-2.34,5.68-5.21Zm-4.29-5.38c-.02-5.27-2.53-6.86-6.24-6.89-3.8-.03-5.03,1.44-6.1,6.89h12.34Z"/>
      <path class="cls-1" d="M2803.31,642.57c5.97-.74,7.28-9.63,15.5-7.44-3.15,3.45-5.74,6.28-8.62,9.42,3.02,5.12,5.91,10.03,8.73,14.81-1.84,2.95-3.98,2.11-5.36,.41-2.68-3.3-4.93-6.95-7.38-10.49-4.63,2.11-3.03,5.79-3.5,8.71-.32,2.01-.99,3.4-3.38,2.78-.41-.56-1.16-1.1-1.16-1.65-.13-10.49-.21-20.98-.19-31.47,0-2.07,1.19-3.23,3.8-2.82,2.34,5.69-.17,11.96,1.56,17.74Z"/>
      <path class="cls-1" d="M2196.35,634.49c3.27-3.37-.73-9.19,5.42-9.99,1.45,8.37,1.59,25.54,.35,35.72-3.08,.52-6.15,1.02-9.21,1.57-6.46,1.15-11.57-1.69-13.42-7.92-1.37-4.61-1.22-9.26,1.14-13.68,2.04-3.83,4.96-6.16,9.44-6.07,2.14,.04,4.28,.25,6.28,.37Zm1.91,13.95c.19-6.08-2.87-10.21-7.4-9.98-4.39,.22-7.43,4.72-7.07,10.48,.33,5.31,3.56,9.22,7.5,9.07,3.9-.14,6.8-4.13,6.97-9.57Z"/>
      <path class="cls-1" d="M3574.7,645.12c1.66,.73,3.43,1.29,4.97,2.23,4.72,2.87,5.42,8.03,1.73,11.83-5.13,5.27-15.03,4.26-18.93-2.04-1.03-1.66-.97-3.45,1.96-4.65,.96,1.08,1.86,2.72,3.25,3.51,1.79,1.02,3.94,1.71,5.99,1.9,2.32,.22,5.2-2.31,4.51-3.67-.73-1.44-2.16-2.82-3.62-3.51-2.27-1.07-4.84-1.48-7.25-2.27-3.03-.99-4.99-3.06-5.21-6.29-.23-3.34,2.81-7.08,6.39-7.82,4.77-.99,9.42-1.12,12.88,3.32,1.64,2.11,.57,3.78-2.95,4.45-1.46-2.78-3.75-4.33-6.89-3.85-1.2,.18-2.84,1.11-3.21,2.09-.32,.87,.54,2.8,1.44,3.35,1.4,.87,3.27,.98,4.94,1.41Z"/>
      <path class="cls-1" d="M2095.79,645.12c1.66,.73,3.43,1.29,4.97,2.23,4.72,2.87,5.42,8.03,1.73,11.83-5.13,5.27-15.03,4.26-18.93-2.04-1.03-1.66-.97-3.45,1.96-4.65,.96,1.08,1.86,2.72,3.25,3.51,1.79,1.02,3.94,1.71,5.99,1.9,2.32,.22,5.2-2.31,4.51-3.67-.73-1.44-2.16-2.82-3.62-3.51-2.27-1.07-4.84-1.48-7.25-2.27-3.03-.99-4.99-3.06-5.21-6.29-.23-3.34,2.81-7.08,6.39-7.82,4.77-.99,9.42-1.12,12.88,3.32,1.64,2.11,.57,3.78-2.95,4.45-1.46-2.78-3.75-4.33-6.89-3.85-1.2,.18-2.84,1.11-3.21,2.09-.32,.87,.54,2.8,1.44,3.36,1.4,.87,3.27,.98,4.94,1.41Z"/>
      <path class="cls-1" d="M1916.94,633.79c4.8,.04,8.6,.88,10.57,5.14,.26,.56,.29,1.74-.03,1.96-.78,.53-2.03,1.15-2.73,.86-1.26-.53-2.14-2.17-3.39-2.49-1.98-.51-4.16-.52-6.21-.32-.64,.06-1.34,1.42-1.64,2.31-.15,.46,.35,1.55,.81,1.74,2.96,1.24,6,2.29,9,3.45,3.91,1.5,5.81,3.82,5.79,6.99-.02,3.83-2.19,6.74-6.04,8.13-6.89,2.47-13.2,.23-15.39-5.65-.27-.74,.36-1.97,.88-2.77,.2-.31,1.5-.33,1.89,0,1.1,.91,1.8,2.46,3,3.05,1.85,.91,4.02,1.77,5.99,1.64,1.41-.1,3.29-1.58,3.93-2.93,.95-1.99-.81-3.33-2.58-3.96-2.72-.97-5.58-1.55-8.27-2.6-3.47-1.36-4.78-3.41-4.69-6.51,.11-3.54,2.09-6.29,5.43-7.3,1.38-.42,2.83-.56,3.66-.72Z"/>
      <path class="cls-1" d="M3761.89,661.49c-4.49,.63-8.25-3.01-12.69-.02-3.14,2.11-7.2,.88-9.79-2.14-2.63-3.06-2.42-6.64-.41-10.07,.54-.93,1.23-1.78,2.13-3.06,3.18-.37,6.69-.71,10.17-1.22,1.9-.28,3.72-1.54,3.19-3.42-.37-1.33-2.33-2.96-3.71-3.09-1.94-.18-4.12,.64-5.97,1.52-1.43,.67-2.51,2.09-4.15,3.53-.75-1.7-1.64-2.72-1.46-3.47,.65-2.56,2.28-4.91,4.89-5.29,3.49-.51,7.16-.55,10.65-.07,3.12,.43,4.9,2.98,5.26,6.11,.29,2.5,.03,5.05,.27,7.56,.4,4.12,1,8.22,1.62,13.14Zm-7.82-12.87c-2.76,.51-5.91,.74-8.75,1.8-1.18,.44-2.49,2.77-2.3,4.02,.2,1.34,2.12,3.43,3.26,3.41,2.3-.04,4.93-.81,6.77-2.17,1.88-1.39,3.26-3.78,1.04-7.07Z"/>
      <path class="cls-1" d="M2722.15,649.35c-6.62,.29-12.32,.54-17.9,.79-.58,3.39,.49,5.51,2.92,6.91,2.49,1.43,4.96,.89,7.16-.6,1.47-1,2.56-2.59,4.07-3.51,.6-.37,1.86,.36,2.82,.59-.03,3.6-2.02,5.87-4.68,7-2.56,1.08-5.61,1.75-8.35,1.53-5.62-.46-9.62-4.95-10.23-10.97-.25-2.49-.22-5.13,.34-7.55,1.45-6.22,6.53-9.85,12.74-9.57,6.08,.28,9.58,3.35,11.05,9.93,.3,1.35,.04,2.83,.04,5.45Zm-17.98-4.28c4.27,.65,8.45,1.02,13.26-.48-1.03-1.89-1.52-3.84-2.78-4.8-1.31-1-3.4-1.58-5.06-1.41-3.57,.37-5.85,2.35-5.43,6.7Z"/>
      <path class="cls-1" d="M1832.21,649.72h-17.22c-1.77,3.3-.47,5.29,1.55,6.88,2.23,1.76,4.79,1.71,7.11,.21,2.04-1.32,3.86-2.98,5.57-4.33,2.09,1,2.62,2.15,1.6,3.64-3.61,5.26-8.4,7.2-13.89,5.7-5.15-1.41-8.48-5.3-8.95-10.99-.21-2.49-.15-5.13,.46-7.54,1.56-6.18,6.69-9.7,12.92-9.31,6.02,.38,9.47,3.55,10.82,10.17,.28,1.36,.04,2.82,.04,5.56Zm-18.21-5.33q6.93,1.42,12.81-.49c-.44-3.99-3.04-5.64-6.67-5.55-3.71,.09-6.08,2-6.14,6.04Z"/>
      <path class="cls-1" d="M3469.93,662c-2.92-.93-5.21-2.22-7.51-2.23-2.01,0-3.99,1.53-6.04,2.18-1,.31-2.16,.27-3.23,.17-5.19-.5-8.33-4.98-7.18-10.1,.73-3.25,3.16-4.88,5.98-5.73,2.75-.83,5.75-.84,8.48-1.7,1.03-.32,2.31-2.08,2.22-3.08-.08-1.01-1.54-2.25-2.68-2.77-2.49-1.14-4.91-.69-7.01,1.25-1.19,1.1-2.52,2.06-4.11,3.34-.9-4.97-.43-6.78,1.94-7.94,4.52-2.21,9.27-2.22,13.67-.08,1.64,.8,3.06,3.15,3.49,5.05,.63,2.78,.14,5.79,.39,8.68,.33,3.83,.91,7.63,1.58,12.97Zm-6-13.75c-4.08,.73-6.21,1.1-8.33,1.5-.71,.14-1.43,.3-2.08,.6-1.79,.83-3.23,2.35-2.43,4.2,.61,1.42,2.48,3.3,3.69,3.23,2.34-.14,5.02-1.02,6.77-2.52,1.29-1.1,1.33-3.66,2.38-7.02Z"/>
      <path class="cls-1" d="M3189.09,633.72c7.71,.09,12.86,6.03,12.49,14.43-.37,8.56-5.6,14.27-13.06,14.27-7.4,0-12.74-6.24-12.48-14.58,.27-8.55,5.5-14.21,13.05-14.12Zm-7.83,14.09c.26,1.33,.53,3.84,1.3,6.18,.85,2.6,4.22,4.47,6.91,4.02,2.61-.44,4.8-1.74,5.57-4.42,.58-2.05,.97-4.22,1.01-6.34,.12-5.57-2.56-9.02-6.87-9.21-4.07-.19-7.26,3.34-7.92,9.78Z"/>
      <path class="cls-1" d="M2598.03,646.23c.68-1.66,1.46-5.32,3.45-8.11,4.75-6.65,16.14-5.62,20.11,1.49,3.07,5.5,2.45,13.38-1.44,18.35-3.02,3.86-8.57,5.36-13.65,3.69-5.43-1.79-8.61-6.86-8.47-15.43Zm20.14,1.15c-.21-1.41-.31-2.48-.53-3.53-.73-3.51-3.36-5.76-6.71-5.81-2.79-.04-5.5,1.84-6.57,4.64-1.33,3.47-1.46,6.98-.18,10.51,1.02,2.83,3.53,4.77,6.39,4.85,2.8,.08,5.69-1.86,6.49-4.66,.58-2.05,.79-4.21,1.11-6Z"/>
      <path class="cls-1" d="M2628.62,672.11c-.29-2.61-.64-4.37-.65-6.13-.05-10.11-.03-20.22-.03-30.22,4.16-.63,7.55-1.26,10.97-1.63,6.51-.72,10.48,1.8,12.18,8.15,.73,2.72,.96,5.78,.55,8.55-1.29,8.77-5.99,11.85-15.32,10.57-.7-.1-1.42-.01-2.83-.01-.3,2.83-.44,5.93-1.1,8.9-.16,.72-2.08,1.05-3.77,1.82Zm3.99-24.49c.22,2.25,.23,3.34,.45,4.39,.7,3.31,3.89,6.05,6.79,5.9,2.63-.13,5.1-2.33,6.15-5.3,1.27-3.59,1.03-7.09-.4-10.54-1.1-2.66-3.32-3.75-6.01-3.7-2.25,.04-4.35,.92-5.22,3.17-.89,2.3-1.39,4.75-1.76,6.08Z"/>
      <path class="cls-1" d="M3600.55,635.72c2.95-1.83,4.63-1.2,5.41,.66,1.52,3.67,2.63,7.5,4.02,11.22,.6,1.6,1.5,3.09,2.85,5.81,2.21-6.29,3.92-11.31,5.74-16.3,.92-2.52,2.51-3.39,5.47-1.19-3.11,10.85-7.14,21.57-11.92,32.01-.69,1.5-2.21,3.06-3.71,3.64-1.44,.56-4.07,.52-4.91-.4-1.57-1.73,.16-2.69,1.87-3.78,4.31-2.76,4.7-4.16,3.14-8.83-1.95-5.83-4.09-11.6-6.14-17.4-.59-1.68-1.14-3.38-1.83-5.44Z"/>
      <path class="cls-1" d="M3656.81,634.38c1.53,.64,3.46,.92,3.64,1.63,.59,2.4,.64,4.95,.76,7.46,.14,2.88-.01,5.78,.22,8.65,.28,3.36,1.91,5.12,4.39,5.17,3.07,.07,5.78-1.73,6.45-4.66,.48-2.08,.58-4.27,.68-6.42,.15-3.24-.05-6.51,.32-9.72,.1-.84,1.74-1.49,2.67-2.22,.93,1.11,1.72,1.63,1.73,2.15,.08,7.9,.06,15.8,.06,23.67-3.68,.58-7.04,1.2-10.43,1.63-6.87,.88-10.7-1.73-11.17-8.37-.43-6.03-.9-12.17,.69-18.95Z"/>
      <path class="cls-1" d="M3063.19,653.38c2.19-6.26,3.9-11.3,5.72-16.3,.79-2.17,.88-2.14,5.53-1.4-3.21,11.12-7.22,21.86-12.01,32.3-.69,1.5-2.23,3.04-3.73,3.61-1.44,.54-4.09,.48-4.89-.45-1.51-1.75,.21-2.69,1.94-3.77,3.93-2.44,4.64-4.3,3.51-7.87-1.31-4.14-2.91-8.18-4.37-12.27-1.33-3.72-2.64-7.46-3.86-10.93,2.27-2.89,4.23-2.19,5.27,.13,1.62,3.61,2.64,7.49,4.04,11.21,.6,1.59,1.52,3.06,2.87,5.72Z"/>
      <path class="cls-1" d="M2060.59,660.54c-4.07,.76-4.72-.91-4.71-2.8,.05-7.25,.26-14.49,.42-22.5,2.25,0,4.53,.16,6.78-.05,2.14-.2,4.23-1.08,6.36-1.14,4.28-.13,7.38,1.84,7.81,5.99,.67,6.44,.47,12.98,.44,19.48,0,.53-1.67,1.53-2.48,1.45-.83-.08-2.08-1.14-2.22-1.92-.36-2.13-.24-4.34-.29-6.51-.07-2.9,.02-5.82-.21-8.71-.28-3.52-1.76-5.07-4.42-5.13-3.33-.07-6.07,1.6-6.65,4.43-.43,2.11-.45,4.32-.54,6.49-.15,3.58-.2,7.17-.3,10.93Z"/>
      <path class="cls-1" d="M2440.12,661.34c-1.98-.71-3.41-.85-4.17-1.63-.62-.63-.58-2.05-.58-3.11-.04-6.88-.02-13.77-.02-21.38,2.79,0,5.08,.16,7.34-.05,2.14-.2,4.24-1.07,6.37-1.13,4.27-.12,7.35,1.87,7.77,6.04,.65,6.44,.45,12.98,.39,19.47,0,.51-1.69,1.49-2.49,1.39-.83-.1-2.05-1.16-2.18-1.96-.36-2.13-.23-4.34-.29-6.51-.07-2.9,.02-5.82-.22-8.71-.29-3.48-1.8-5.05-4.46-5.08-3.36-.04-6.05,1.63-6.62,4.47-.42,2.11-.43,4.32-.52,6.49-.14,3.58-.2,7.17-.32,11.69Z"/>
      <path class="cls-1" d="M2727.99,663.01v-28.07c2.44,.16,4.49,.52,6.5,.36,1.77-.14,3.48-1.1,5.26-1.26,5.76-.51,9.26,1.93,9.81,7.66,.55,5.76,.27,11.6,.12,17.4-.02,.68-1.42,1.79-2.24,1.86-.81,.06-2.25-.81-2.45-1.54-.46-1.71-.39-3.57-.45-5.37-.12-3.63-.05-7.27-.31-10.88-.16-2.31-1.23-4.2-3.89-4.46-3.31-.32-6.27,1.26-6.92,3.99-.5,2.09-.59,4.29-.7,6.45-.16,3.26,0,6.54-.38,9.77-.11,.89-1.64,1.62-4.36,4.09Z"/>
      <path class="cls-1" d="M2824.01,635.05c2.29,.13,4.33,.49,6.32,.3,2.14-.2,4.21-1.18,6.34-1.33,3.98-.28,6.93,1.27,7.93,4.42,2.25,7.05,1.62,14.27,.66,21.46-.06,.45-1.18,1.16-1.66,1.06-.94-.2-2.46-.81-2.53-1.4-.39-3.21-.4-6.47-.56-9.71-.18-3.57,.66-7.33-1.96-10.43-7.94-.57-9.43,.5-9.8,7.4-.21,3.99,.07,8.01-.33,11.97-.22,2.19-1.99,2.72-4.4,1.27v-25.01Z"/>
      <path class="cls-1" d="M3351.27,647.71c-.09,8.11-3.59,13.01-10.25,14.35-6.21,1.25-11.66-1.56-13.76-7.48-.81-2.3-1.13-4.91-1.06-7.36,.26-8.5,5.73-13.85,13.46-13.47,7.36,.36,11.7,5.58,11.6,13.97Zm-5.13,.11c-.13-1.5-.16-2.59-.34-3.65-.59-3.52-3.18-5.93-6.51-6.12-2.86-.17-5.49,1.53-6.79,4.31-1.78,3.81-1.94,7.61-.1,11.44,1.33,2.78,4.03,4.46,6.87,4.24,2.68-.21,5.36-2.42,6.11-5.31,.45-1.73,.56-3.54,.77-4.91Z"/>
      <path class="cls-1" d="M1932.29,648.39c-.05-10,6.52-16.06,15.56-14.35,1.05,.2,2.16,.4,3.08,.9,5.51,2.97,6.78,8.06,6.42,13.74-.35,5.64-1.97,10.63-8.01,12.79-9.26,3.32-17.01-2.62-17.06-13.08Zm4.63-.09c.62,2.09,.97,3.86,1.66,5.49,1.2,2.83,4,4.47,6.84,4.25,2.67-.21,5.6-2.41,6.04-5.33,.47-3.15,.54-6.44,.19-9.6-.31-2.79-3.36-4.99-6.24-5.03-2.65-.04-5.1,.8-6.25,3.35-1.02,2.24-1.56,4.7-2.25,6.88Z"/>
      <path class="cls-1" d="M3495.96,660.58c-.89,.05-1.91,.11-3.48,.21-.19-2.97-.55-5.77-.49-8.55,.12-5.72-.66-11.5,.55-16.64,3.92-.54,7.35-1.1,10.79-1.48,7-.78,10.45,1.86,10.8,8.67,.27,5.4,.23,10.84-.1,16.24-.14,2.27-2.12,2.4-4.62,1.32-.08-5.21-.08-10.57-.29-15.92-.14-3.44-1.5-5.19-3.92-5.66-3.32-.64-6.6,1.21-7.51,4.62-.55,2.05-.58,4.26-.72,6.4-.2,3.23-.28,6.47-.44,9.71-.02,.3-.3,.59-.57,1.08Z"/>
      <path class="cls-1" d="M2345.48,648.75c-.06,.75,.23,1.84,.49,2.88,1.54,6.32,6.39,7.77,11.15,3.31,.76-.72,1.08-2.03,1.92-2.49,.76-.42,2.29-.44,2.86,.06,.58,.5,.82,2.06,.48,2.84-3.25,7.45-13.7,9.1-18.82,3.07-4.71-5.56-4.4-15.52,.38-21.1,4.74-5.53,16.94-4.47,18.34,2,.26,1.2-.33,2.59-.53,3.9-1.02-.16-2.59,.04-2.95-.54-2.19-3.44-5-5.5-8.97-3.58-3.73,1.8-4.03,5.7-4.35,9.66Z"/>
      <path class="cls-1" d="M2025.7,647.99c.14-10.17,6.69-15.93,15.82-13.86,1.04,.24,2.11,.53,3.04,1.02,5.11,2.67,7.39,9.61,5.71,17.14-1.38,6.15-6.11,10.09-12.23,10.15-7.59,.08-12.46-5.62-12.34-14.46Zm20.03,.18c-.16-1.75-.18-2.84-.38-3.89-.66-3.43-3.34-5.96-6.53-6.23-3.12-.27-6.35,1.89-7.39,5.14-1.13,3.53-1.18,7.11,.23,10.58,1.04,2.57,4.27,4.55,6.92,4.28,2.71-.28,4.79-1.67,5.71-4.28,.71-2.01,1.08-4.13,1.44-5.6Z"/>
      <path class="cls-1" d="M2973.46,634.86c2.53-.32,5-.84,7.48-.89,5.33-.1,8.44,2.26,9.07,7.37,.8,6.42,.38,12.88,.15,20.46-2.28-1.12-4.11-1.46-4.34-2.25-.58-2.04-.5-4.27-.58-6.43-.11-3.26,.04-6.54-.26-9.78-.21-2.22-1.31-4.16-3.84-4.63-3.07-.57-6.35,.9-7.11,3.62-.67,2.39-.79,4.96-.96,7.47-.23,3.24-.1,6.52-.54,9.72-.09,.66-2.02,1.07-3.82,1.94-1.2-11.74-.44-22.56-.57-33.36,0-.7,.12-1.48,.44-2.09,.28-.55,.99-1.35,1.37-1.27,.92,.18,2.41,.68,2.52,1.26,.53,2.82,.67,5.72,.98,8.87Z"/>
      <path class="cls-1" d="M3102.05,647.81c-.1,8.14-3.59,13-10.3,14.27-1.05,.2-2.14,.38-3.19,.29-5.09-.46-8.8-2.96-10.65-7.8-2.29-5.99-.53-14.29,3.67-18.01,3.46-3.06,9.86-3.76,14.21-1.54,4.12,2.1,6.34,6.63,6.26,12.79Zm-4.92,.16c-.18-1.72-.21-2.81-.43-3.86-.68-3.37-3.48-5.89-6.66-6.09-3.08-.19-6.6,2.02-7.19,5.34-.55,3.1-.6,6.46-.02,9.55,.56,3.01,3.07,4.78,6.24,5.14,2.74,.31,5.6-1.5,6.68-4.43,.73-1.99,1.03-4.14,1.38-5.64Z"/>
      <path class="cls-1" d="M3651.74,647.09c-.1,8.81-3.57,13.68-10.27,14.97-1.05,.2-2.14,.39-3.19,.3-5.09-.44-8.81-2.93-10.68-7.76-2.3-5.95-.55-14.3,3.62-18.03,3.45-3.08,9.91-3.92,14.18-1.55,4.94,2.75,6.64,7.28,6.32,12.07Zm-4.92,.54c-.21-1.64-.26-2.73-.5-3.78-.73-3.26-3.75-5.82-6.85-5.89-2.62-.06-5.55,1.98-6.68,4.64-1.48,3.48-1.42,7.04-.3,10.56,.86,2.69,3.82,4.8,6.51,4.93,2.74,.12,5.53-1.73,6.54-4.7,.68-2.01,.94-4.17,1.28-5.75Z"/>
      <path class="cls-1" d="M2875.19,647.86c-.12,8.12-3.61,13.21-10.37,14.12-2.69,.36-5.84-.03-8.3-1.14-6.04-2.71-8.33-12.85-4.95-20.06,2.84-6.08,9.92-8.72,16.42-6.14,4.8,1.91,7.31,6.51,7.21,13.21Zm-4.93,.31c-.16-1.75-.18-2.84-.38-3.89-.66-3.43-3.34-5.96-6.53-6.23-3.12-.27-6.35,1.89-7.39,5.14-1.13,3.53-1.18,7.11,.23,10.58,1.04,2.57,4.27,4.55,6.92,4.28,2.71-.28,4.79-1.67,5.71-4.28,.71-2.01,1.08-4.13,1.44-5.6Z"/>
      <path class="cls-1" d="M1978.84,635.83c0,4.97-.11,10.38,.04,15.77,.09,3.26,1.74,5.26,4.07,5.63,2.81,.45,5.91-1.25,6.76-4.21,.69-2.4,.88-4.96,1.09-7.46,.28-3.24,.25-6.51,.64-9.73,.06-.49,1.65-.79,2.42-1.13,.7,.76,1.53,1.23,1.53,1.71,.08,7.92,.06,15.85,.06,23.7-3.83,.59-7.24,1.22-10.68,1.62-6.94,.81-10.56-1.93-10.93-8.69-.29-5.42-.21-10.89,.17-16.31,.16-2.39,2.2-2.33,4.82-.91Z"/>
      <path class="cls-1" d="M3277.83,662.25c-2.09-1.78-3.75-2.53-3.75-3.3-.14-10.83-.09-21.67,.07-32.5,0-.6,1.49-1.66,2.23-1.61,.7,.05,1.79,1.23,1.88,2,.31,2.86,.17,5.77,.38,8.64,.17,2.35-.82,4.9,.79,7.02,5.85-.39,7.08-9.57,14.89-7.16-2.69,3.15-5.01,5.85-7.73,9.02,1.37,5.79,6.64,9.85,8.53,15.6-1.98,1.87-4.18,1.72-5.68-.16-2.24-2.8-3.91-6.05-6.04-8.95-.46-.63-1.85-.79-2.8-.75-.48,.02-1.24,.9-1.34,1.49-.48,2.81-.78,5.64-1.42,10.65Z"/>
      <path class="cls-1" d="M2320.25,662.25c-2.09-1.78-3.74-2.53-3.75-3.3-.14-10.83-.09-21.66,.07-32.5,0-.6,1.49-1.66,2.23-1.61,.7,.05,1.8,1.23,1.88,2,.31,2.86,.28,5.76,.35,8.64,.06,2.38-.12,4.79,.3,7.17,6.07-.84,7.23-7.9,12.86-8.04,.61-.01,1.24,.59,2.24,1.09-2.38,2.78-4.69,5.48-7.41,8.66,1.36,5.8,6.64,9.85,8.53,15.6-1.98,1.87-4.18,1.72-5.68-.16-2.24-2.8-3.91-6.05-6.04-8.95-.46-.63-1.85-.79-2.8-.75-.48,.02-1.24,.9-1.34,1.49-.48,2.81-.78,5.64-1.42,10.65Z"/>
      <path class="cls-1" d="M3128.69,660.62c-2.65,0-4.68-.17-6.67,.05-1.77,.19-3.47,1.08-5.24,1.21-5.74,.43-9.05-2.12-9.46-7.84-.4-5.74-.35-11.54-.05-17.29,.11-2.1,2.03-2.68,4.79-1.03,.07,4.84,.14,10.18,.23,15.52,.04,2.64,.43,5.17,3.48,5.97,2.74,.72,6.6-1.82,7.35-5,.49-2.08,.46-4.29,.56-6.45,.13-2.88,.03-5.78,.34-8.64,.08-.77,1.14-1.83,1.95-2.05,1.75-.47,2.66,.81,2.68,2.36,.08,7.51,.03,15.02,.03,23.18Z"/>
      <path class="cls-1" d="M3299.87,660.44c-.41-8.21-.27-16.42-.1-25.45,2.5,.19,4.47,.58,6.38,.42,1.76-.15,3.45-1.14,5.21-1.32,6.32-.63,9.95,2.02,10.33,8.21,.37,6.07,.84,12.23-.61,19.04-1.53-.68-3.42-.97-3.64-1.73-.59-2.03-.51-4.27-.59-6.43-.12-3.26,.04-6.54-.29-9.77-.22-2.2-1.33-4.15-3.84-4.64-3.01-.58-6.23,.93-7.16,3.6-.58,1.67-.83,3.51-.92,5.28-.18,3.62,0,7.26-.32,10.85-.09,1-1.42,1.89-2.19,2.83-.76-.3-1.51-.6-2.27-.91Z"/>
      <path class="cls-1" d="M3227.98,660.4c-3.25,.85-4.49,.21-4.64-1.49-.26-2.88-.21-5.78-.29-8.67-.06-2.17,.03-4.36-.2-6.51-.33-3.06-2.2-4.93-4.68-5.02-3.22-.11-6.26,1.55-6.67,4.38-.56,3.91-.43,7.92-.72,11.88-.13,1.74-.37,3.53-1,5.13-.22,.56-1.73,.6-3.17,1.04-1.27-8.96-1.05-17.48-.23-25.6,4.36-.56,8.15-1.22,11.97-1.5,5.64-.42,9.16,2.3,9.54,7.95,.41,6.09,.09,12.23,.09,18.41Z"/>
      <path class="cls-1" d="M2152.64,635.5c3.93-.5,7.33-.98,10.75-1.35,7.03-.77,10.58,1.81,11,8.61,.33,5.4,.22,10.87-.18,16.27-.18,2.41-2.28,2.21-4.73,.85,0-2.86,.01-6.09,0-9.32-.01-2.17,.05-4.36-.15-6.52-.3-3.13-2.08-5.16-4.41-5.33-3.6-.26-6.89,1.75-7.24,5.1-.48,4.67-.35,9.4-.53,14.1-.08,2.15-1.15,3.29-4,2.82-1.62-8.32-.82-16.82-.49-25.23Z"/>
      <path class="cls-1" d="M3784.84,661.82c-1.56-9.51-1.11-18.04-.44-26.98,2.52,.18,4.58,.57,6.61,.41,2.13-.16,4.21-1.14,6.33-1.23,4.57-.19,8.01,2.27,8.37,6.74,.49,6.1,.26,12.28,.07,18.41-.05,1.71-1.67,1.98-4.06,1.34-.19-1.42-.55-3.07-.6-4.72-.13-3.98,.02-7.98-.23-11.95-.2-3.12-2.1-5.03-4.54-5.16-3.21-.17-6.12,1.48-6.79,4.25-.5,2.08-.58,4.28-.68,6.43-.16,3.25,.02,6.54-.4,9.75-.11,.85-1.91,1.47-3.63,2.68Z"/>
      <path class="cls-1" d="M2532.28,635.55c2.97-1.81,4.74-.87,5.69,1.47,1.22,3.02,2.04,6.19,3.15,9.26,.71,1.98,1.63,3.89,2.8,6.61,3.55-5.31,4.24-10.73,6.28-15.59,.9-2.15,2.41-3.74,5.69-1.75-2.15,8.12-5.6,15.98-8.83,23.88-.46,1.13-2.84,1.46-5.06,2.51-3.94-9.05-7.42-17.54-9.71-26.38Z"/>
      <path class="cls-1" d="M3028.35,625.13c1.26,3.48,1.73,5.48,2.69,7.21,.82,1.48,2.21,2.64,3.67,4.32-5.3,2.86-3.55,7.89-4.28,12.33-.77,4.67,2.21,7.78,4.28,11.46-6.84,1.04-8.66,.14-9.14-4.34-.26-2.5,0-5.06-.19-7.57-.29-3.78,1.35-8.01-2.36-11.08-.25-.2-.51-.75-.4-.96,1.62-3.3,3.3-6.58,5.73-11.36Z"/>
      <path class="cls-1" d="M2005.14,626.61c1.25,.89,2.51,1.31,2.81,2.1,.85,2.24,.18,5.15,3.23,6.39,.34,.14,.44,2.36,.01,2.63-4.84,3.12-2.4,7.91-2.69,11.92-.37,5.02-.04,5.04,3.3,10.55-5.99,1.79-7.87,1.05-8.42-3.68-.37-3.22-.19-6.5-.36-9.74-.16-3.12,.96-6.56-2.38-8.95-.47-.34-.39-2.07,0-2.88,1.31-2.75,2.88-5.38,4.5-8.33Z"/>
      <path class="cls-1" d="M3243.59,635.09c.55-.46,1.1-.93,1.66-1.39,2.08-1.74-.18-6.76,4.21-6.38,3.38,.29,1.4,4.52,3.18,6.22,.97,.93,2.32,1.45,4.13,2.54-6.09,3.45-5.01,8.05-5.01,12.27,0,4.2-1.26,8.83,5.07,11.11-7.42,2.63-9.58,1.87-10.08-2.84-.42-3.96-.53-7.99-.29-11.96,.19-3.22-1.08-5.56-3.08-7.75,.32-.57,.39-1.18,.21-1.81Z"/>
      <path class="cls-1" d="M2759.56,624.71c1.31,4.07,1.66,6.05,2.58,7.73,.78,1.43,2.22,2.52,3.34,3.73-6.1,8.17-5.1,16.17-.06,24.16-6.44,1.56-8.24,.58-8.6-4.93-.18-2.86-.06-5.74-.09-8.61-.01-1.79,.15-3.61-.09-5.38-.98-7.34-.97-7.78,2.91-16.7Z"/>
      <path class="cls-1" d="M3475.24,634.99c3.14,0,5.56,.27,7.89-.09,1.74-.27,3.8-1.61,4.8,.35,1.43,2.78-.91,3.56-3.12,4.28-3.23,1.06-4.15,3.8-4.29,6.84-.21,4.33-.18,8.68-.52,13-.05,.64-1.61,1.65-2.41,1.61-.82-.05-2.23-1.19-2.25-1.87-.16-7.91-.1-15.82-.1-24.12Z"/>
      <path class="cls-1" d="M3766.89,635.26c4.12-.71,7.35,1.1,10.33-.97,.46-.32,2.58,.68,2.56,.96-.1,1.26-.66,2.49-1.16,3.7-.08,.19-.67,.16-1.03,.24-4.37,1.03-5.5,4.39-5.64,8.23-.15,4.3-.03,8.62-.03,13.94-2.18-.76-3.62-.88-4.4-1.65-.62-.62-.6-2.03-.61-3.1-.05-6.88-.02-13.77-.02-21.36Z"/>
      <path class="cls-1" d="M2424.96,660.18c-1.06-7.57-.65-15.41-.22-23.22,.13-2.33,2.05-2.5,4.63-1.35,0,7.52,.15,15.37-.09,23.2-.07,2.25-2,2.56-4.31,1.37Z"/>
      <path class="cls-1" d="M2016.81,632.63c2.86,2.58,4.46,3.35,4.48,4.15,.19,7.83,.11,15.67,.11,23.19-2.36,1.41-4.4,1.32-4.48-.98-.28-7.84-.11-15.69-.11-26.36Z"/>
      <path class="cls-1" d="M2590.25,623.95c1.2,1.05,2.9,1.84,2.92,2.66,.2,10.83,.21,21.66,.1,32.49,0,.59-1.45,1.63-2.22,1.63-.74,0-2.01-1-2.14-1.71-1.04-5.94-.14-29.18,1.34-35.07Z"/>
      <path class="cls-1" d="M3703.43,643.33c0,5.4,.07,10.79-.11,16.18-.02,.48-1.56,1.1-2.47,1.28-.4,.08-1.24-.69-1.42-1.23-.34-.99-.48-2.09-.48-3.15-.03-9.04-.06-18.07,.03-27.11,.01-1.36,.55-2.77,1.09-4.05,.16-.37,1.18-.44,1.82-.52,.26-.03,.75,.22,.82,.45,.43,1.33,1.06,2.69,1.1,4.05,.13,4.69,.05,9.4,.05,14.09-.14,0-.28,0-.42,0Z"/>
      <path class="cls-1" d="M1967.38,642.47c0,5.42,.07,10.84-.09,16.25-.02,.73-1.12,1.85-1.9,2.05-1.78,.46-2.61-.91-2.62-2.43-.09-10.12-.11-20.23-.05-30.35,0-.99,.67-1.99,1.12-2.94,.1-.21,.6-.38,.87-.33,.63,.13,1.53,.24,1.79,.67,.53,.88,.97,1.97,.99,2.98,.1,4.7,.04,9.4,.04,14.09-.05,0-.1,0-.15,0Z"/>
      <path class="cls-5" d="M2254.85,625.23c2.04,8.25,1.99,27.78,0,35.24-2.49,.25-3.04-1.39-3.06-3.32-.06-7.95-.11-15.9-.05-23.85,.01-2.13,.2-4.31,.69-6.37,.16-.69,1.52-1.1,2.42-1.7Z"/>
      <path class="cls-1" d="M2771.99,668.37c.14-2.53,.49-4.06,.23-5.48-.24-1.31-1.33-2.46-1.68-3.77-.4-1.53,.35-2.71,1.95-3.15,1.89-.52,3.75,.64,3.87,2.42,.23,3.57-.22,6.88-4.38,9.98Z"/>
      <path class="cls-1" d="M3391.7,668.22c2.23-4.22,.88-6.84-.35-9.58-.25-.55,.64-2.1,1.38-2.47,.77-.39,2.49-.3,2.9,.24,2.25,2.98,1.03,7.42-3.93,11.8Z"/>
      <path class="cls-2" d="M3243.59,635.09c.18,.63,.11,1.24-.21,1.81h-7.32c-.28-2.54-.57-5.14-.84-7.75-.31-3,.58-4.54,2.72-4.61,2.87-.08,3.23,2.03,3.57,4.18,.36,2.23-1.08,5.05,2.09,6.36Z"/>
      <path class="cls-2" d="M2023.24,626.83c-1.98,1.66-3.02,3.1-4.38,3.53-1.48,.46-3.42-1.89-2.89-3.49,.38-1.13,1.72-2.8,2.52-2.74,1.34,.1,2.6,1.39,4.75,2.7Z"/>
      <path class="cls-2" d="M2427.07,622.43c1.31,2.39,2.52,3.71,2.61,5.1,.05,.89-1.38,2.3-2.45,2.74-1.52,.62-3.8-1.31-3.39-2.94,.36-1.42,1.65-2.6,3.23-4.9Z"/>
      <path class="cls-4" d="M1221.34,4.37c1.59-.72,3.13-1.92,4.77-2.07,3.61-.32,7.26-.21,10.9-.1,3.7,.12,7.26-.21,10.5-2.2,9.46,2.14,19.11,3.46,28.37,6.5,8.71,5.12,17.42,10.24,26.13,15.36,5.77,7.28,11.54,14.56,17.31,21.84,2,6.97,3.95,13.95,8.9,19.58,3.08,12.27,6.76,24.42,7.23,37.2-.21,11.6-.43,23.19-.64,34.79-.86,5.02-1.73,10.05-2.59,15.07-4.32,11.67-8.63,23.33-12.95,35-4.2,6.28-7.3,13.11-10.57,20.15,8.96,8.86,13.7,19.86,18.69,30.66,3.86,8.33,4.96,17.36,4.27,26.41-.96,12.56-1.93,25.16-5.82,37.29-.32,.99-.1,2.15-.13,3.23-.65,2.03-1.5,4.03-1.91,6.11-5.8,29.51-16.71,56.85-34.21,81.44-1.24,1.74-2.13,3.73-3.18,5.61-6.11,7.12-12.72,13.88-18.24,21.43-12.18,16.65-24,33.58-35.65,50.62-16.02,23.43-29.29,48.37-39.53,74.88-4.21,10.9-7,22.09-6.83,33.9,.16,11.25-.05,22.5,.3,33.74,.4,12.69,2.02,25.26,5.29,37.58,1.75,9.53,3.73,18.99,8.15,27.74,1.85,7.43,5.3,14.04,10.2,19.9,.94,1.89,1.73,3.88,2.87,5.65,1.16,1.81,2.66,3.4,4.01,5.09-7.01,.89-13.25-2.08-19.71-3.92-1.79-1.04-3.64-1.98-5.35-3.14-3.22-2.2-6.36-4.53-9.53-6.8-2.82-2.43-6.23-4.09-7.75-8.06-.79-2.07-3.34-3.48-5.09-5.18-3.45-6.31-8.88-11.3-11.91-17.94-.48-1.05-2.66-1.32-5.34-2.54,.85,4.15,1.48,6.86,1.95,9.6,.98,5.7,2.23,11.39,2.71,17.13,.45,5.4,.05,10.86,.03,16.3-.44,2.12-.84,4.25-1.32,6.37-1.94,8.5-4,16.97-8.64,24.5-1.87,3.03-4.05,5.87-6.47,9.35,5.77,4.83,11.27,9.44,16.77,14.05,2.92,3.16,5.84,6.31,8.76,9.47,4.6,6.43,9.21,12.85,13.81,19.28,2.3,5.07,4.59,10.13,6.88,15.2,1.38,4.38,2.76,8.75,4.14,13.13,1.14,7.98,2.46,15.94,1.99,24.05-1.85,3.11-1.86,6.55-2.13,10.03-.14,1.87-1.44,3.66-2.22,5.49-1.29-1.59-2.58-3.18-3.88-4.78-1.9-6.88-5.94-12.44-10.85-17.46-3.51-4.17-6.99-8.37-10.55-12.49-.4-.46-1.25-.53-1.89-.78-4.42-7.63-11.54-12.29-18.64-16.98-4.64-2.66-8.7-6.03-12.72-9.57-3.98-3.51-8.5-6.52-14.39-7.64-6.22,11.04-13.19,21.12-22.51,29.38-1.27,1.12-2.07,2.96-2.66,4.63-3.83,10.91-7.54,21.86-11.29,32.8-3.18,5.91-6.37,11.82-9.55,17.73-2.67,4.96-5.35,9.92-8.02,14.87-7.18,8.82-14.35,17.63-21.53,26.45-10.14,8.39-20.84,15.97-32.54,22.06-4.06,1.41-8.14,2.77-12.18,4.23-14.58,5.26-29.72,5.03-44.85,4.39-5.35-.23-10.64-1.31-15.31-4.27,5.28-2.67,10.55-5.35,15.83-8.02,6.67-2.6,13.25-5.34,17.86-11.21,3.8-2.67,7.8-5.1,11.33-8.08,3.52-2.96,6.57-6.47,9.83-9.73,6.62-4.47,10.89-10.97,15.07-17.53,2.8-4.28,5.59-8.56,8.39-12.85-.11-.91-.23-1.83-.34-2.74,1.25-1.27,2.93-2.33,3.7-3.85,7.02-13.81,8.85-28.71,9.58-43.61-8.43-1.34-16.16-2.57-23.88-3.8-2.05,11.23,2.33,32.08,10.74,51.31l-2.29,1.77c-7.06,.98-13.41-1.06-19.38-4.61-3.37-2-6.67-4.11-10-6.17-2.71-2.76-5.41-5.51-8.12-8.27-2.38-4.01-4.8-8-7.13-12.04-9.16-15.89-13.29-32.73-9.73-51.06,.25-1.29,.42-2.97-2.45-3.53-2.22,2.07-4.79,4.49-7.39,6.89-28.65,26.53-61.55,42.92-101.49,42.6-1.76-.01-3.53,.52-5.3,.81-2.88-.63-5.76-1.26-10.4-2.28,6.4-2.76,10.99-4.86,15.66-6.75,13.57-5.48,26.24-12.44,36.56-23,6.07-6.21,11.75-12.81,17.5-19.32,1.17-1.32,2.09-3.02,.23-5.54-3.37-.27-7.27-.79-11.17-.86-20.94-.34-41.17,2.8-60.14,12.28-4.32,2.16-7.82,4.91-10.7,8.83-7.36,10.01-16.06,18.69-26.7,25.28-1.51,.94-3.23,1.93-4.17,3.35-9.02,13.64-18.03,27.3-20.47,44.01-3.7,12.9-5.52,26.04-5.2,39.47-.63,4.34-1.26,8.68-1.89,13.03-1.37,6.53-2.75,13.06-4.12,19.59-2.63,5.77-5.26,11.54-7.89,17.31-1.23,.58-2.46,1.16-3.7,1.75-6.48-.37-13.01-1.4-19.43-.97-10.44,.69-20.86,2.07-31.22,3.64-17.29,2.62-33.8,7.86-49.47,15.68-9.42,4.66-18.4,10.04-26.55,16.73-1.8,.19-3.59,.41-5.39,.58-4.87,.46-8.43-1.34-10.38-5.99-.42-.99-1.02-1.91-1.53-2.86-2.09-4.36-4.19-8.71-6.28-13.07-2.81-8.03-5.62-16.06-8.43-24.08-1.87-7.33-3.74-14.65-5.61-21.98-1.2-6.45-2.4-12.91-3.6-19.36-.37-6.15-.81-12.29-1.11-18.44-.3-6.09-.46-12.19-.66-17.66-1.54-1.34-2.28-2.19-3.19-2.75-17.94-11.01-35.78-22.19-53.88-32.93-23.43-13.91-48.33-24.98-72.82-36.83-23.57-11.41-47.77-20.96-73.18-27.57-15.06-3.92-29.9-8.87-44.55-14.17-24.62-8.92-48.31-19.89-70-34.8-3.52-2.42-7.23-4.59-10.88-6.82-6.58-4-11.07-10.14-15.9-15.85-8.45-9.99-16.29-20.44-21.79-32.44-.52-1.13-.51-2.99-2.58-2.7-8.82,12.37-17.12,33.93-21.29,55.27-.97,5.86-1.94,11.71-2.9,17.57-3.22,7.77-2.18,15.94-2.22,24-3.05,9.46-2.15,18.9,.09,28.34,.12,4.34,.24,8.69,.36,13.03,.58,4.39,1.15,8.77,1.73,13.16-.01,5.2-.44,10.45,2.24,15.26,.84,5.08,1.68,10.16,2.52,15.23,.88,4.52,1.03,9.25,3.93,13.17,.26,3.02-.66,6.34,2.22,8.69,0,4.85,1.45,9.23,4.25,13.17,.03,2.14,.07,4.27,.1,6.41-1.41-.02-2.82-.04-4.23-.07-2.45-5.36-5.82-9.96-10.87-13.17-3.98-6.8-6.67-14.45-13.08-19.63-2.92-5.04-5.84-10.07-8.75-15.11-3.75-8.73-7.49-17.47-11.24-26.2-2.76-10.13-5.51-20.26-8.27-30.39-.51-10.98-1.01-21.96-1.51-32.93,.52-9.36,1.04-18.73,1.55-28.09,.47-1.33,1.23-2.62,1.38-3.98,2.85-25.2,9.13-49.42,20.57-72.17,2.89-2.36,4.49-5.27,3.89-9.12,.21-.26,.41-.53,.62-.79-.16,.31-.33,.61-.49,.92-2.53,.67-3.86,2.49-4.65,4.83-14.31,15.58-26.14,32.98-37.27,50.88-1.71,2.74-2.91,5.8-4.35,8.71-6.39,8.25-11.29,17.32-14.88,27.11-6.1,8.65-9.36,18.59-12.94,28.39-5.1,8.86-8.23,18.46-10.77,28.29-4.13,8.99-6.55,18.42-7.15,28.31-3.58,6.89-4.23,14.32-4,21.9-.06,7.98-.11,15.97-.17,23.95-5.93-3.01-9.83-7.79-12.3-13.89-.79-1.96-1.87-3.8-2.81-5.69-1.48-5.09-2.97-10.19-4.45-15.28-1.4-10.17-2.8-20.33-4.2-30.5,.51-4.87,1.11-9.74,1.51-14.62,.26-3.15,.23-6.31,.33-9.47,2.18-10.17,4.36-20.34,6.54-30.52,2.64-7.35,5.35-14.68,7.89-22.07,.68-1.97,.82-4.13,1.21-6.2,4.56-7.5,8.08-15.48,10.93-23.77,3.7-6.41,7.44-12.8,11.06-19.26,.85-1.51,1.31-3.24,1.95-4.87,2.35-3.47,4.8-6.88,7.03-10.43,2.83-4.5,5.48-9.1,8.2-13.66,.53-.48,1.18-.87,1.58-1.44,18.01-25.56,38.47-48.79,63.82-67.41,.71-.52,.91-1.74,1.73-3.43-5.14-.57-9.75-1.31-14.37-1.54-19.94-1.02-39.67,.94-59.26,4.57-5.08,.8-10.15,1.6-15.23,2.41-5.83,1.3-11.67,2.6-17.5,3.89-5.08,1.51-10.17,3.01-15.25,4.52-7.03,1.71-13.49,4.73-19.65,8.47-5.1,2.84-10.2,5.69-15.31,8.53-3.63,2.23-7.26,4.47-10.88,6.7-2.04-1.41-2.48-3.34-1.52-5.49,1.14-2.55,2.49-5.01,3.74-7.51,4.91-2.99,9.75-8.49,13.26-15.08,5.82-5.14,11.63-10.29,17.45-15.43,4.27-2.89,9.6-4.16,12.93-8.48,7.25-3.12,14.5-6.23,21.74-9.35,7.9-1.27,14.86-4.92,21.79-8.63,1.43-.22,2.93-.21,4.27-.69,24.76-8.83,50.15-10.02,75.97-6.56,1.34,.18,3.12,1.27,4.36-1.06-2.03-.91-3.91-1.97-5.92-2.63-19.71-6.53-39.79-6.89-59.99-2.97-6.32,1.23-12.9,1.87-18.59,5.4-2.33,.46-4.64,1.06-6.99,1.34-2.67,.31-5.37,.33-8.06,.47,1.26-2.9,2.53-5.79,3.79-8.69,1.92-1.55,4.14-2.84,5.7-4.7,4.59-5.46,10.38-9.3,16.41-12.87,6-1.33,11.21-4.28,16.13-7.82,5.61-1.94,11.23-3.87,16.84-5.81,3.2-.62,6.4-1.24,9.6-1.86,3.2-.61,6.39-1.24,9.6-1.8,3.21-.56,6.42-1.15,9.66-1.51,3.24-.36,6.5-.47,9.76-.63,3.26-.16,6.52-.16,9.77-.38,3.25-.22,6.48-.61,9.72-.95,2.99-.31,6.31,.75,9.38-1.66-.97-1.79-1.53-3.1-2.32-4.23-19.86-28.58-33.35-60-41.79-93.69-1.23-4.9-2.72-9.74-4.09-14.61-.36-2.86-.56-5.74-1.11-8.56-5.24-26.7-9.15-53.58-9.72-80.8-.42-20.23-1.06-40.46-.72-60.73,.47-27.93,1.39-55.78,5.13-83.48,3.16-23.44,8.15-46.38,18.89-67.71,.76-1.5,1.18-3.18,2.23-6.06-6.4,1.07-11.78-1.09-16.99,1.61-7.37-.28-14.62,.33-21.62,2.84-10.83,1.66-21.25,4.54-30.64,10.43-10.41,4.35-20.17,9.74-28.2,17.86-7.04,4.52-12.55,10.6-17.55,17.19-3.32,1.31-4.52,4.4-5.93,7.24-1.07,2.17-2.71,3.18-5,3.38-.59-1.24-1.94-2.73-1.63-3.68,2.66-8.23,4.75-16.82,8.7-24.43,5.97-11.52,13.27-22.33,23.18-31.1,3.51-3.11,6.51-6.78,9.75-10.2,.81-1.08,.74-2.07-.76-1.96-.88,.06-1.7,1.01-2.54,1.56-1.05,.25-2.15,.36-3.13,.77-13.16,5.49-21.69,16.47-30.61,26.71-6.09,6.99-10.79,15.19-16.11,22.85-2.45-.2-4.4-1.28-3.78-3.95,1.05-4.47,2.4-8.9,3.96-13.22,2.05-5.67,4.43-11.22,6.67-16.82,4.87-4.78,9.82-9.48,12.99-15.67,5.12-4.25,10.25-8.49,15.37-12.74,7.22-4.58,14.44-9.16,21.66-13.74,1.36-.41,2.81-.63,4.06-1.26,10.58-5.33,21.64-9.32,33.11-12.23,6.55-1.66,13.1-3.33,19.65-5,6.71-.43,13.41-.86,20.12-1.27,5.64-.34,11.27-.66,16.91-.99,1.42,.2,2.83,.54,4.25,.58,11.82,.3,23.64,.48,35.36,2.47,5.63,.95,11.33,1.46,17,2.17,3.13,.83,6.24,1.72,9.38,2.49,26.01,6.38,50.95,15.5,74.31,28.72,6.24,3.53,12.43,7.16,18.65,10.75,1.23,1.28,2.29,2.83,3.73,3.81,13.09,8.93,25.43,18.82,37.5,29.06,1.89,1.6,4.08,2.84,6.14,4.25,13.28,12.37,26.55,24.74,39.83,37.11,9.78,10.64,19.59,21.26,29.32,31.96,1.69,1.86,3.05,4.02,4.45,5.88,5.5-.88,9.73-1.7,14.01-2.21,8.26-.98,16.52-2.32,24.81-2.54,21.59-.57,42.5,3.27,62.67,11.06,1.95,.75,3.9,1.54,6.05,2.4,4.93-6.42,9.48-12.41,14.11-18.34,1.07-1.37,2.23-2.8,3.64-3.78,8.89-6.13,17.87-12.13,26.81-18.18,6.96-2.67,13.9-5.4,20.88-7.99,10.09-3.74,20.26-6.86,31.07-2.79,14.05,6.65,28.12,13.26,40.88,22.26,2.94,2.08,6.2,1.66,9.41,1.69,14.46,.11,28.9-.14,43.36,1.28,19.42,1.91,38.92,2.99,58.38,4.56,8.28,.67,16.53,1.67,24.79,2.52,2.42,.75,4.79,1.71,7.26,2.22,24.54,5,47.31,13.93,67.05,29.77,1.21,.97,3.26,.88,4.92,1.28,.68,1.19,1.12,2.64,2.08,3.53,13.26,12.29,25.2,25.66,34.66,41.15,.86,1.4,2.16,2.53,3.4,3.95,4.83-3.65,9.57-6.43,13.25-10.23,3.9-4.04,9.72-4.44,13.49-8.35,22.28-9.56,45.56-15.76,69.27-20.53,5.28-1.06,10.55-2.2,15.82-3.3,5.79-.25,11.59-.42,17.38-.78,3.98-.25,7.93-.97,11.91-1.13,18.85-.76,37.7-1.54,56.55-2.02,14.57-.37,28.95-2.23,43.17-5.17,12.77-2.64,25.44-5.85,37.18-11.87,10.08-2.92,18.68-8.32,26.14-15.61,7.33-4.46,14.01-9.54,17.17-17.98,6.28-5.91,9.7-13.32,11.28-21.67,.63-1.97,1.65-3.91,1.8-5.92,.35-4.59,.27-9.2,.37-13.81,3.12-8.44-.06-16.21-2.56-24.05-1.99-9.92-6.46-18.6-13.17-26.14-2.47-6.62-7.18-11.38-12.79-15.39-2.66-2.35-5.28-4.74-7.99-7.03-2.44-2.06-4.97-4-7.47-6-4.34-7.67-11.43-10.37-19.71-10.87-2.15-.13-4.3-.11-6.45-.16-1.48-.67-2.95-1.35-4.43-2.02Zm-265.91,418.12c10.37-18.81,17.79-37.31,22.72-56.76,3.3-13.02,6.48-26.1,6.77-39.63,.31-14.92-.3-16.12-13.55-22.85-6.78-3.45-13.98-6.07-20.94-9.17-15.38-6.85-31.39-11.27-48.15-13.07-4.99-.54-9.93-1.58-15.22-2.44-.64-3.21-1.33-6-1.74-8.82-3.43-23.2-10.4-45.25-21.59-65.89-3.11-5.73-6.69-11.22-10.23-16.71-2.22-3.45-5.14-5.86-9.58-6.41-8.26-1.03-16.44-2.98-24.72-3.66-19.11-1.55-37.6,2.09-55.71,7.96-6.86,2.22-13.72,4.42-21.73,7-.75-1.21-1.34-2.62-2.32-3.69-15.61-17.08-34.2-30.35-54.2-41.7-6.29-3.57-13.06-6.32-19.62-9.42-5.23-2.47-10.31-2.34-15.76-.1-14.24,5.85-27.61,13.19-38.98,23.55-8.57,7.81-16.37,16.47-24.37,24.9-3.71,3.91-7.08,8.16-10.69,12.35-8.94-2.38-17.27-4.77-25.69-6.81-22.71-5.48-45.6-8.72-69.04-5.52-4.67,.64-8.2,1.88-10.51,6.35-2.66,5.15-6.02,9.94-8.89,14.99-9.04,15.93-15.77,32.68-17.54,51.12-.76,7.95-1.4,15.9-2.17,23.85-.31,3.16-.86,6.3-1.26,9.24-1.77,.6-2.76,1.05-3.79,1.27-26.25,5.74-50.07,17.12-72.59,31.43-4.59,2.91-8.86,6.33-13.21,9.61-3.42,2.58-5.16,6-4.67,10.4,.44,3.97,.62,7.97,1.25,11.91,2.58,16.16,6.69,31.96,11.4,47.62,4.74,15.77,11.35,30.61,21.02,44.02,.38,.52,.37,1.32,.62,2.27-3.42,3.48-6.97,7.07-10.49,10.68-19.18,19.65-31.66,43.17-40.1,69.08-1.5,4.61-1.09,8.42,1.79,12.24,3.72,4.93,7.15,10.07,10.87,15,15.24,20.17,32.87,37.82,54.58,51.1,4.91,3,9.87,5.9,14.47,8.65,.25,1.29,.54,2,.49,2.69-.18,2.17-.43,4.34-.76,6.49-4.92,32.1-2.23,63.69,6.15,94.95,1.08,4.05,3.24,6.47,6.88,7.6,5.54,1.71,11.14,3.35,16.82,4.5,27.63,5.58,55.45,6.67,83.43,2.96,2.1-.28,4.28-.04,6.94-.04,1.56,4.05,3.14,8.07,4.65,12.11,4.69,12.61,9.97,24.9,16.82,36.54,7.62,12.96,18.5,22.25,31.36,29.5,1.8,1.01,4.19,1.95,6.09,1.65,9.29-1.5,18.61-3.04,27.74-5.29,23.69-5.82,44.31-17.87,63.67-32.32,1.97-1.47,4.02-2.83,6.17-4.35,15.72,11.52,33.16,18.76,50.7,25.74,11.56,4.6,23.69,6.81,36.12,7.37,9.25,.41,17.18-2.39,23.26-9.62,3.74-4.44,7.79-8.68,11.11-13.42,12.94-18.48,24.6-37.7,32.66-58.9,.51-1.33,1.37-2.52,2.08-3.81,6.93-1.12,13.72-2.17,20.49-3.33,22.77-3.89,44.15-11.33,64.01-23.47,7.66-4.68,12.82-10.35,15.42-18.69,.76-2.43,1.64-4.81,2.36-7.25,6.01-20.43,7.89-41.32,6.84-62.51-.38-7.57-1.27-15.11-1.9-22.33,8.82-7.64,17.6-14.71,25.77-22.43,11.64-11,22.27-22.9,30.65-36.7,4.68-7.7,5.19-15.69,2.65-24-1.16-3.8-2.61-7.58-4.49-11.07-11.93-22.13-24.75-43.61-44.6-59.88-2.17-1.78-3.84-4.17-6.06-6.63Zm323.77-184.83c2.35,16.42,.47,32.44,4.29,48.82,15.47-26.96,22.19-52.23,18.96-70.23-7.63,7.03-15.24,14.03-23.26,21.41Zm-138.71,370.89c-5.28,10.49-6.99,20.11-8.42,28.48,5.94,7.16,10.87,13.3,16.06,19.23,1.23,1.41,3.07,3.21,6.13,.51-1.27-7.72-5.96-14.81-7.79-22.77-1.82-7.92-3.71-15.83-5.98-25.45Zm-75.81,57.86c3.38,7.44,7.07,14.8,10.08,22.43,3.05,7.75,5.25,15.83,8.13,23.66,2.8,7.62,1.85,16.27,6.19,24.13,.7-1.41,1.22-2,1.25-2.61,.07-1.44,.07-2.92-.17-4.34-3.22-19.04-8.55-37.46-16.59-55.05-1.34-2.94-3.17-5.71-5.1-8.31-.8-1.08-2.47-1.5-3.79,.09Z"/>
      <path class="cls-3" d="M955.43,422.48c2.22,2.46,3.88,4.85,6.06,6.63,19.85,16.26,32.67,37.75,44.6,59.88,1.88,3.49,3.33,7.27,4.49,11.07,2.54,8.32,2.02,16.31-2.65,24-8.38,13.79-19.02,25.7-30.65,36.7-8.17,7.72-16.95,14.8-25.77,22.43,.63,7.22,1.52,14.76,1.9,22.33,1.05,21.19-.82,42.08-6.84,62.51-.72,2.44-1.6,4.82-2.36,7.25-2.6,8.34-7.76,14.02-15.42,18.69-19.86,12.14-41.23,19.58-64.01,23.47-6.77,1.16-13.56,2.2-20.49,3.33-.71,1.29-1.58,2.48-2.08,3.81-8.06,21.2-19.72,40.42-32.66,58.9-3.32,4.74-7.37,8.97-11.11,13.42-6.08,7.23-14.01,10.03-23.26,9.62-12.43-.56-24.56-2.78-36.12-7.37-17.54-6.97-34.98-14.22-50.7-25.74-2.16,1.51-4.2,2.88-6.17,4.35-19.36,14.46-39.98,26.5-63.67,32.32-9.13,2.24-18.45,3.79-27.74,5.29-1.91,.31-4.29-.63-6.09-1.65-12.86-7.25-23.73-16.54-31.36-29.5-6.85-11.64-12.13-23.94-16.82-36.54-1.5-4.04-3.09-8.06-4.65-12.11-2.67,0-4.84-.24-6.94,.04-27.98,3.71-55.79,2.62-83.43-2.96-5.68-1.15-11.28-2.79-16.82-4.5-3.64-1.12-5.8-3.55-6.88-7.6-8.37-31.27-11.07-62.85-6.15-94.95,.33-2.15,.58-4.32,.76-6.49,.06-.69-.24-1.41-.49-2.69-4.6-2.74-9.56-5.65-14.47-8.65-21.7-13.28-39.33-30.93-54.58-51.1-3.72-4.93-7.15-10.07-10.87-15-2.89-3.82-3.29-7.63-1.79-12.24,8.44-25.91,20.92-49.43,40.1-69.08,3.52-3.61,7.06-7.19,10.49-10.68-.24-.95-.24-1.75-.62-2.27-9.66-13.41-16.28-28.25-21.02-44.02-4.71-15.66-8.83-31.46-11.4-47.62-.63-3.94-.81-7.94-1.25-11.91-.49-4.4,1.25-7.82,4.67-10.4,4.34-3.28,8.62-6.7,13.21-9.61,22.52-14.31,46.34-25.69,72.59-31.43,1.04-.23,2.02-.67,3.79-1.27,.41-2.94,.95-6.07,1.26-9.24,.78-7.94,1.41-15.9,2.17-23.85,1.77-18.43,8.5-35.18,17.54-51.12,2.87-5.05,6.22-9.84,8.89-14.99,2.31-4.46,5.84-5.71,10.51-6.35,23.45-3.2,46.33,.04,69.04,5.52,8.42,2.03,16.76,4.43,25.69,6.81,3.61-4.19,6.97-8.43,10.69-12.35,8-8.42,15.79-17.09,24.37-24.9,11.37-10.36,24.74-17.7,38.98-23.55,5.45-2.24,10.53-2.37,15.76,.1,6.56,3.1,13.32,5.85,19.62,9.42,20,11.35,38.59,24.62,54.2,41.7,.97,1.06,1.57,2.47,2.32,3.69,8.01-2.58,14.87-4.78,21.73-7,18.11-5.87,36.6-9.51,55.71-7.96,8.28,.67,16.45,2.63,24.72,3.66,4.44,.55,7.36,2.96,9.58,6.41,3.53,5.49,7.12,10.98,10.23,16.71,11.19,20.64,18.17,42.69,21.59,65.89,.42,2.83,1.1,5.61,1.74,8.82,5.29,.86,10.23,1.9,15.22,2.44,16.76,1.8,32.77,6.22,48.15,13.07,6.96,3.1,14.16,5.72,20.94,9.17,13.25,6.73,13.86,7.93,13.55,22.85-.28,13.53-3.47,26.61-6.77,39.63-4.93,19.45-12.36,37.95-22.72,56.76Zm-163.53-75.94c-2.84,2.53-4.94,4-6.53,5.9-5.59,6.67-10.95,13.52-16.49,20.23-14.29,17.33-28.56,34.68-42.95,51.93-12.3,14.74-24.76,29.36-37.14,44.03-8.41,9.96-16.85,19.88-25.21,29.88-9.75,11.68-19.38,23.46-29.18,35.11-1.31,1.56-3.31,2.55-5.35,4.09-13.49-8.42-25.87-17.87-38.84-26.44-13.23-8.75-25.59-18.82-40.1-27.23-6.95,9.39-13.01,18.78-19.16,28.09-6.1,9.24-13.39,17.75-18.43,27.93,10.36,9.67,22.33,15.96,32.96,24.05,10.94,8.33,22.32,16.08,33.5,24.1,10.89,7.81,21.46,16.14,32.75,23.31,11.52,7.31,21.67,16.71,34.32,22.97,7.73-9.28,15.16-18.15,22.54-27.05,20.13-24.28,40.27-48.55,60.35-72.86,8.3-10.05,16-20.63,24.82-30.2,9.58-10.4,17.29-22.37,27.69-32.07,3.67-3.43,6.5-7.77,9.65-11.75,6.52-8.22,12.86-16.59,19.51-24.7,11.25-13.74,22.73-27.3,33.98-41.04,1.03-1.25,1.14-3.26,1.87-5.5-18.05-14.15-34.65-29.78-54.56-42.73Z"/>
      <path class="cls-6" d="M791.9,346.55c19.91,12.95,36.5,28.58,54.56,42.73-.73,2.25-.84,4.25-1.87,5.5-11.25,13.74-22.73,27.3-33.98,41.04-6.65,8.12-13,16.48-19.51,24.7-3.15,3.98-5.98,8.32-9.65,11.75-10.4,9.7-18.11,21.67-27.69,32.07-8.82,9.57-16.52,20.15-24.82,30.2-20.08,24.32-40.22,48.59-60.35,72.86-7.38,8.9-14.8,17.77-22.54,27.05-12.65-6.25-22.8-15.66-34.32-22.97-11.3-7.17-21.86-15.5-32.75-23.31-11.18-8.01-22.56-15.77-33.5-24.1-10.63-8.1-22.6-14.38-32.96-24.05,5.05-10.18,12.33-18.69,18.43-27.93,6.15-9.31,12.21-18.7,19.16-28.09,14.51,8.41,26.87,18.48,40.1,27.23,12.96,8.57,25.35,18.02,38.84,26.44,2.04-1.53,4.03-2.52,5.35-4.09,9.8-11.64,19.43-23.43,29.18-35.11,8.35-10,16.8-19.92,25.21-29.88,12.39-14.67,24.84-29.29,37.14-44.03,14.39-17.25,28.66-34.59,42.95-51.93,5.53-6.71,10.9-13.57,16.49-20.23,1.59-1.9,3.69-3.37,6.53-5.9Z"/>
    </g>
  </g>
</svg>